<svg width="512" height="512" viewBox="0 0 512 512" fill="none" xmlns="http://www.w3.org/2000/svg">
<rect width="512" height="512" rx="32" fill="#445137"/>
<path fill-rule="evenodd" clip-rule="evenodd" d="M255.169 210.038L255.169 210.039L255.158 210.047C254.743 210.381 254.329 210.715 253.915 211.047L252.142 209.821C250.318 208.503 248.491 207.149 246.654 205.787C234.465 196.753 221.81 187.374 206.31 185.868C200.388 185.255 194.2 185.868 188.934 188.97C184.732 191.396 181.497 195.965 181.692 200.968C181.754 205.786 184.564 210.585 189.023 212.522C191.175 213.455 193.542 213.774 195.863 213.445C198.184 213.116 200.37 212.151 202.179 210.656C194.12 216.549 182.915 211.109 183.199 200.986C183.544 191.485 194.528 187.655 202.702 188.374C209.377 188.677 215.822 190.881 221.771 193.84C229.349 197.61 235.923 202.825 242.53 208.066L242.531 208.066L242.531 208.067L242.531 208.067L242.532 208.067C244.836 209.895 247.144 211.726 249.5 213.5L250.148 213.998C240.396 221.321 229.598 227.187 217.746 230.209C204.191 233.595 189.378 232.484 177.046 225.721C168.252 220.966 160.859 213.127 158.678 203.226C157.299 196.664 158.047 189.832 160.815 183.726C163.58 177.505 169.068 173.31 175.451 171.106C178.889 169.882 182.497 169.062 186.119 168.24C191.255 167.073 196.418 165.9 201.159 163.56C209.368 159.871 216.913 150.228 212.976 141.021C209.883 134.275 202.693 130.8 196.257 128C199.472 129.515 202.528 131.349 205.379 133.475C208.81 136.141 211.877 139.59 212.471 143.936C213.491 151.855 206.93 158.485 200.104 161.356C195.673 163.324 190.98 164.211 186.204 165.115C185.782 165.194 185.359 165.274 184.936 165.355C173.562 167.248 162.605 170.688 157.1 181.904C146.826 203.315 158.935 224.165 179.36 233.053C183.008 234.645 186.803 235.875 190.69 236.724C199.641 238.542 208.873 238.461 217.79 236.484C218.959 236.284 220.535 235.85 221.904 235.473L221.904 235.473L221.905 235.473C222.364 235.347 222.8 235.227 223.189 235.124C224.455 234.79 226.153 234.178 227.563 233.67C227.881 233.555 228.184 233.446 228.464 233.346C238.223 229.601 247.372 224.419 255.608 217.971C277.922 233.418 302.088 239.301 329.029 228.636C339.113 224.688 348.405 218.95 356.457 211.696C332.433 190.605 299.349 181.095 270.44 198.782C264.926 202.184 259.99 206.157 255.169 210.038L255.169 210.038ZM288.054 227.125C277.762 225.116 268.418 220.495 259.598 214.86C269.713 206.719 279.509 199.511 292.629 197.324C311.653 193.485 330.997 200.444 346.253 211.9C343.822 213.786 341.282 215.528 338.647 217.117C323.648 226.245 305.412 230.653 288.054 227.125ZM306.724 274.888L314.31 275.767L330.66 332.631H334.206L349.071 285.33L364.932 332.596H368.549L383.742 275.999L391.359 274.888V271.27H385.011H380.49H370.739V274.888L379.161 276.094L367.537 318.263L353.921 276.025L363.141 274.888V271.27H352.388H349.489H338.736V274.888L347.925 275.968L333.96 317.903L322.687 275.947L331.139 274.888V271.27H306.724V274.888ZM39 327.13L46.686 326.044V279.778L45.337 277.9L39.1241 277.376V272.444H46.686H59.5137L86.1443 309.091V278.471L75.8076 277.314V272.444H86.1443H91.9686H99.6546V277.314L91.9686 278.454V332.178L91.942 332.151V332.178H84.3181L52.5103 287.888V325.921L62.8558 327.13V332H52.5103H46.686H39V327.13ZM142.721 305.95C142.757 307.592 142.587 309.231 142.216 310.83H115.985C116.648 320.396 121.825 324.739 128.138 324.739C130.205 324.756 132.252 324.33 134.141 323.49C136.031 322.65 137.72 321.416 139.095 319.869L142.216 322.81C138.51 329.921 132.003 333.396 123.253 333.396C110.098 333.396 100.727 324.766 100.727 310.137C100.727 295.027 112.349 286.824 124.016 286.824C135.939 286.806 142.721 294.983 142.721 305.95ZM115.964 306.048H123.768C128.103 306.048 129.228 304.422 129.228 300.378C129.228 294.423 126.392 291.49 123.112 291.49C119.611 291.49 116.401 295.043 115.964 306.048ZM150.451 332H145.717V327.779L150.601 326.744C150.685 322.309 150.726 316.777 150.726 312.963V307.719C150.726 302.733 150.726 300.84 150.451 297.214L144.92 296.396V292.841L162.756 286.815L164.307 287.793L164.851 294.416C169.181 289.315 173.575 286.806 179.014 286.806C185.168 286.806 189.189 289.465 190.961 294.851C196.01 288.719 200.398 286.806 205.556 286.806C214.679 286.806 218.73 292.059 218.73 302.84V312.981C218.73 316.922 218.771 322.407 218.855 326.8L223.375 327.743V331.965H219.002L219.005 332.018H204.315L204.318 331.965H200.104V327.743L204.46 326.714C204.541 322.336 204.581 316.896 204.581 312.981V304.208C204.581 297.383 203.145 295.587 199.439 295.587C196.794 295.587 194.248 296.777 191.807 298.835C191.937 299.947 192.002 301.137 192.002 302.404V312.963C192.002 316.919 192.043 322.433 192.125 326.834L196.381 327.743V331.965H192.266L192.268 332H177.578L177.58 331.965H173.039V327.743L177.725 326.699C177.809 322.32 177.853 316.879 177.853 312.963V304.235C177.853 297.898 176.594 295.57 172.605 295.57C170.007 295.57 167.39 296.949 165.132 298.849V312.954C165.132 316.813 165.178 322.43 165.264 326.891L169.52 327.779V332H150.451ZM244.075 306.741C245.909 306.204 248.39 305.521 250.945 304.845V301.88C250.945 293.881 249.394 291.472 243.623 291.472C242.787 291.487 241.953 291.534 241.122 291.615L240.715 295.516C240.485 301.542 237.568 303.977 234.084 303.977C230.857 303.977 228.694 302.422 227.994 299.436C228.472 291.89 235.751 286.78 248.765 286.78C260.36 286.78 264.952 291.694 264.952 303.835V324.161C264.952 325.939 265.697 326.828 266.991 326.828C267.94 326.828 268.675 326.339 269.73 324.828L272.133 326.437C269.961 331.378 266.734 333.28 261.247 333.28C255.964 333.303 252.739 330.894 251.428 326.714C247.458 330.887 244.606 333.378 238.428 333.378C231.433 333.378 226.575 329.236 226.575 321.78C226.575 315.327 230.13 310.794 244.075 306.741ZM246.69 310.35C247.792 309.844 249.278 309.318 250.945 308.798V323.537C248.357 325.402 247.046 326.046 245.369 326.046C242.311 326.046 239.935 323.939 239.935 319.398C239.935 315.14 242.594 312.127 246.69 310.35ZM274.801 318.091L274.571 329.21C279.34 332.026 284.79 333.471 290.324 333.387C303.072 333.387 310.776 327.868 310.776 318.278C310.776 311.55 307.336 306.83 298.755 304.262L294.322 303C288.108 301.124 286.76 299.391 286.76 296.876C286.76 293.579 289.455 291.801 293.498 291.801C295.542 291.801 297.056 292.019 298.47 292.503L300.297 300.396H307.558L308.178 290.459C303.777 288.073 298.855 286.818 293.852 286.806C281.663 286.806 274.979 293.276 274.979 301.631C274.979 308.448 278.923 313.096 285.918 315.149L290.794 316.562C296.751 318.322 298.418 320.18 298.418 323.033C298.418 326.659 295.554 328.365 290.35 328.365C287.848 328.365 285.722 327.918 283.584 327.057L282.071 318.091H274.801ZM414.328 305.213C410.81 306.035 407.339 307.05 403.929 308.252C391.829 312.687 389.107 316.767 389.01 321.913C389.01 329.432 394.524 333.236 401.119 333.236C406.417 333.236 409.465 330.873 414.508 325.862C415.254 330.209 418.258 332.907 422.502 332.907C425.578 332.907 428.016 331.725 430.188 328.285L428.415 326.286C427.404 327.468 426.411 328.285 424.869 328.285C422.794 328.285 421.527 326.828 421.527 322.757V303.533C421.527 292.112 417.005 287.855 407.697 287.855C398.655 287.855 391.962 292.112 390.242 299C390.428 301.267 391.864 302.626 394.311 302.626C396.758 302.626 398.114 301.213 398.921 298.547L400.763 292.546C402.416 292.138 404.116 291.931 405.827 291.934C411.802 291.934 414.328 294.103 414.328 302.991V305.213ZM414.328 308.577C411.447 309.337 408.609 310.255 405.827 311.328C397.697 314.5 396.793 317.949 396.793 320.58C396.793 325.379 399.958 327.281 404.116 327.281C407.2 327.281 408.996 326.167 414.328 322.334V308.577ZM427.289 348.674C427.918 346.141 430.542 344.87 433.255 344.87C435.604 344.87 437.413 345.759 439.851 348.221L440.312 348.685C444.256 345.349 446.851 340.444 448.618 335.484L449.032 334.32L432.645 292.977L427.643 292.21V289.037H431.083H439.487H449.168V292.308L441.036 293.254L452.526 324.537L463.793 293.349L455.763 292.21V289.037H473.493V292.21L468.638 293.249L454.132 331.503C447.98 347.812 442.918 354.709 435.516 354.709C431.074 354.638 427.289 352.211 427.289 348.674ZM84.0344 360.406H84.2738L84.1053 357.544C83.6237 357.303 83.1225 357.104 82.6071 356.948C81.8114 356.724 80.9868 356.619 80.1604 356.637C79.4606 356.632 78.7651 356.746 78.1037 356.975C77.5088 357.183 76.9606 357.506 76.4903 357.926C76.0302 358.332 75.6667 358.836 75.4265 359.401C75.1662 359.995 75.0362 360.637 75.0453 361.286C75.027 362.065 75.207 362.835 75.5683 363.525C75.923 364.175 76.3644 364.773 76.8803 365.303C77.4109 365.857 77.9765 366.377 78.5735 366.858C79.1764 367.338 79.7526 367.827 80.2845 368.307C80.7799 368.76 81.2202 369.27 81.5965 369.827C81.9387 370.336 82.1209 370.937 82.1196 371.551C82.1328 371.905 82.0709 372.257 81.9379 372.585C81.8049 372.913 81.604 373.209 81.3483 373.453C80.7776 373.957 80.0336 374.218 79.2739 374.182C78.7704 374.184 78.2711 374.09 77.8023 373.906C77.3615 373.724 76.9564 373.465 76.6055 373.142C76.2426 372.803 75.9425 372.403 75.719 371.96C75.4734 371.48 75.2944 370.968 75.1871 370.44H74.9034L74.7261 373.808L74.8401 373.882L74.8406 373.883C75.0802 374.038 75.3299 374.2 75.6126 374.368C75.9608 374.576 76.3255 374.754 76.703 374.902C77.1426 375.063 77.5929 375.194 78.0505 375.293C78.5722 375.403 79.1042 375.456 79.6373 375.453C80.4772 375.473 81.3133 375.334 82.1018 375.044C82.7361 374.796 83.3147 374.425 83.8039 373.951C84.2314 373.511 84.5634 372.988 84.7791 372.413C84.9919 371.845 85.1001 371.242 85.0982 370.635C85.125 369.886 84.9504 369.143 84.5929 368.485C84.2201 367.838 83.7673 367.24 83.2454 366.707C82.6865 366.128 82.0945 365.582 81.4724 365.072C80.8253 364.556 80.2402 364.032 79.6994 363.525C79.1754 363.025 78.7086 362.467 78.3076 361.863C77.9583 361.38 77.7692 360.798 77.7668 360.201C77.7583 359.831 77.8309 359.464 77.9796 359.126C78.1126 358.829 78.3093 358.565 78.5558 358.353C78.8162 358.137 79.1179 357.976 79.4423 357.882C79.7743 357.773 80.1215 357.719 80.4707 357.722C80.9528 357.714 81.4318 357.801 81.8802 357.979C82.2623 358.136 82.6158 358.355 82.9263 358.628C83.206 358.887 83.4451 359.186 83.6355 359.517C83.7996 359.798 83.9333 360.096 84.0344 360.406ZM87.3233 369.747C87.3046 368.899 87.503 368.06 87.8996 367.311C88.2813 366.618 88.8038 366.013 89.4332 365.534C90.0977 365.055 90.8297 364.677 91.6052 364.414C92.4307 364.112 93.2783 363.874 94.1406 363.703C94.9929 363.536 95.8543 363.421 96.7203 363.356C97.6068 363.285 98.3426 363.25 99.0518 363.241V362.352C99.0678 361.664 98.9658 360.979 98.7504 360.326C98.5653 359.796 98.2621 359.316 97.8639 358.921C97.491 358.548 97.0397 358.263 96.543 358.086C95.999 357.895 95.4259 357.802 94.8498 357.81C94.4308 357.81 94.0126 357.846 93.5998 357.917C93.1608 357.993 92.7302 358.112 92.3144 358.273C91.8306 358.461 91.3623 358.687 90.9137 358.948C90.3823 359.257 89.8701 359.599 89.38 359.97L89.2027 359.864L90.4172 357.393C90.7883 357.222 91.1703 357.076 91.5608 356.957C91.942 356.851 92.3232 356.753 92.7133 356.682C93.1033 356.611 93.5023 356.566 93.9101 356.531C94.3179 356.495 94.7434 356.486 95.1866 356.486C96.2622 356.462 97.3344 356.615 98.3603 356.939C99.1617 357.195 99.8993 357.619 100.523 358.184C101.07 358.693 101.492 359.323 101.756 360.023C102.015 360.751 102.144 361.518 102.137 362.29V368.067C102.137 369.071 102.137 369.951 102.181 370.733C102.2 371.059 102.215 371.355 102.229 371.629L102.229 371.63C102.249 372.014 102.267 372.354 102.288 372.671C102.323 373.213 102.385 373.675 102.447 374.039C102.509 374.404 102.58 374.715 102.651 374.928V374.99H98.7326V374.928C98.7974 374.72 98.8419 374.505 98.8656 374.288C98.9011 374.051 98.9277 373.755 98.9454 373.4C98.6972 373.613 98.4046 373.826 98.0589 374.057C97.6925 374.294 97.307 374.499 96.9064 374.671C95.9042 375.078 94.8318 375.283 93.7505 375.275C92.0423 375.387 90.3515 374.875 88.99 373.835C88.4269 373.32 87.9852 372.686 87.6969 371.979C87.4086 371.272 87.281 370.509 87.3233 369.747ZM95.9579 364.77C96.9234 364.666 97.9224 364.587 98.9631 364.583V369.871V371.364C98.8192 371.687 98.6279 371.987 98.3958 372.253C98.1376 372.558 97.8394 372.828 97.5093 373.053C97.1222 373.305 96.7053 373.508 96.2682 373.657C95.7677 373.822 95.2436 373.903 94.7168 373.897C94.1863 373.927 93.6556 373.844 93.1592 373.654C92.6628 373.464 92.2118 373.171 91.8356 372.795C91.2213 371.967 90.8599 370.978 90.7954 369.947C90.7309 368.917 90.966 367.89 91.4722 366.991C91.9318 366.328 92.5632 365.802 93.2984 365.472C94.1409 365.094 95.0392 364.857 95.9579 364.77ZM110.594 372.235C109.908 371.227 109.594 370.011 109.708 368.796L109.734 363.81C109.734 363.444 109.731 363.099 109.728 362.772C109.722 362.168 109.717 361.628 109.734 361.143C109.761 360.397 109.787 359.757 109.841 359.206C109.894 358.655 109.947 358.201 110 357.837C110.05 357.538 110.115 357.241 110.195 356.948V356.877H106.108V356.948C106.192 357.24 106.257 357.537 106.303 357.837C106.374 358.193 106.427 358.655 106.481 359.197C106.534 359.739 106.587 360.343 106.587 361.134V363.801V369.836C106.589 370.523 106.681 371.208 106.862 371.871C107.037 372.516 107.339 373.12 107.748 373.648C108.174 374.182 108.713 374.613 109.326 374.91C110.061 375.243 110.861 375.404 111.667 375.381C112.29 375.378 112.909 375.279 113.502 375.088C114.136 374.892 114.751 374.636 115.337 374.324C115.951 374.002 116.544 373.64 117.11 373.24C117.668 372.84 118.191 372.431 118.67 372.013C118.648 372.608 118.592 373.202 118.502 373.791C118.431 374.253 118.351 374.626 118.28 374.928V374.99H122.331V374.928C122.252 374.635 122.186 374.339 122.136 374.039C122.083 373.675 122.021 373.213 121.977 372.671L121.968 372.559L121.958 372.45C121.917 371.962 121.87 371.411 121.87 370.733V368.067V363.774C121.87 363.409 121.867 363.063 121.864 362.736V362.736C121.858 362.132 121.853 361.592 121.87 361.108C121.897 360.361 121.924 359.721 121.977 359.17C122.03 358.619 122.083 358.166 122.136 357.802C122.186 357.502 122.252 357.206 122.331 356.913V356.842H118.271V356.913C118.354 357.205 118.422 357.502 118.475 357.802C118.552 358.255 118.606 358.712 118.635 359.17C118.662 359.509 118.68 359.873 118.7 360.291L118.7 360.294L118.709 360.481L118.72 360.707C118.726 360.835 118.733 360.968 118.741 361.108C118.785 361.899 118.785 362.77 118.785 363.774V369.302V370.395C118.342 370.793 117.871 371.159 117.376 371.489C116.893 371.83 116.389 372.141 115.869 372.422C115.399 372.673 114.91 372.887 114.406 373.062C113.999 373.21 113.571 373.291 113.138 373.302C112.661 373.333 112.183 373.253 111.742 373.067C111.3 372.882 110.907 372.598 110.594 372.235ZM116.046 352.513C116.933 352.185 117.819 351.873 118.706 351.58L117.074 348.807C116.383 349.438 115.585 350.14 114.947 350.674C114.309 351.207 113.617 351.767 112.855 352.371C112.092 352.975 111.33 353.535 110.559 354.042L110.949 354.7C111.33 354.486 111.773 354.282 112.216 354.086L113.528 353.509L114.823 352.976L116.046 352.513ZM134.884 356.522C135.371 356.523 135.858 356.565 136.338 356.646C136.815 356.733 137.286 356.852 137.748 357.002C138.201 357.153 138.64 357.343 139.06 357.57C139.457 357.787 139.831 358.043 140.177 358.335V355.429V352.762C140.177 352.084 140.13 351.533 140.089 351.045C140.082 350.97 140.076 350.897 140.07 350.825C140.026 350.283 139.964 349.82 139.911 349.456C139.861 349.157 139.796 348.86 139.716 348.567V348.496H143.803V348.567C143.719 348.86 143.651 349.156 143.599 349.456C143.518 349.908 143.464 350.366 143.439 350.825C143.439 351.12 143.415 351.447 143.39 351.804C143.368 352.102 143.345 352.422 143.333 352.762C143.306 353.509 143.288 354.398 143.288 355.429V368.067C143.288 369.071 143.288 369.951 143.333 370.733C143.35 371.032 143.363 371.307 143.375 371.562C143.394 371.974 143.412 372.336 143.439 372.671C143.464 373.13 143.518 373.587 143.599 374.039C143.651 374.339 143.719 374.636 143.803 374.928V374.99H139.893V374.928C139.935 374.792 139.965 374.652 139.982 374.51C139.982 374.387 140.005 374.244 140.031 374.085L140.031 374.084L140.043 374.013C140.052 373.953 140.062 373.89 140.07 373.826C139.355 374.254 138.593 374.599 137.801 374.857C136.777 375.177 135.708 375.33 134.636 375.31C133.334 375.329 132.039 375.109 130.815 374.662C129.717 374.25 128.72 373.607 127.89 372.777C127.065 371.931 126.428 370.919 126.019 369.809C125.571 368.549 125.351 367.218 125.372 365.88C125.359 364.608 125.597 363.345 126.072 362.165C126.527 361.051 127.203 360.041 128.058 359.197C128.923 358.342 129.951 357.67 131.081 357.224C132.293 356.749 133.584 356.511 134.884 356.522ZM140.203 361.454C139.83 360.348 139.12 359.388 138.173 358.708C137.3 358.115 136.267 357.805 135.212 357.819C134.34 357.808 133.474 357.974 132.668 358.308C131.904 358.619 131.219 359.099 130.665 359.712C130.088 360.375 129.648 361.145 129.37 361.979C129.04 362.957 128.881 363.986 128.9 365.018C128.893 366.216 129.033 367.41 129.317 368.573C129.565 369.593 129.988 370.561 130.567 371.435C131.088 372.225 131.79 372.877 132.615 373.337C133.477 373.805 134.445 374.041 135.425 374.022C135.951 374.022 136.475 373.956 136.985 373.826C137.436 373.695 137.873 373.52 138.288 373.302C138.663 373.113 139.019 372.89 139.352 372.635C139.629 372.42 139.884 372.179 140.115 371.915C140.115 371.406 140.132 370.813 140.168 370.138V367.987L140.203 361.454ZM152.384 374.706C153.566 375.122 154.81 375.329 156.063 375.319C157.098 375.327 158.13 375.214 159.139 374.982C159.927 374.785 160.691 374.502 161.417 374.137L162.729 370.982L162.517 370.875C162.237 371.329 161.904 371.747 161.524 372.12C161.127 372.513 160.68 372.851 160.194 373.124C159.676 373.419 159.122 373.643 158.545 373.791C157.911 373.954 157.258 374.035 156.604 374.031C155.686 374.046 154.776 373.852 153.944 373.462C153.164 373.079 152.482 372.523 151.949 371.835C151.367 371.074 150.929 370.213 150.655 369.293C150.328 368.21 150.135 367.091 150.079 365.96C150.895 365.907 151.772 365.907 152.738 365.907H159.901L163.9 365.96C163.888 364.59 163.646 363.232 163.181 361.943C162.797 360.846 162.193 359.839 161.408 358.984C160.663 358.19 159.756 357.565 158.749 357.153C157.674 356.726 156.527 356.512 155.371 356.522C154.193 356.512 153.027 356.755 151.949 357.233C150.902 357.697 149.958 358.368 149.175 359.206C148.369 360.064 147.74 361.073 147.322 362.174C146.863 363.358 146.635 364.619 146.648 365.889C146.625 367.27 146.875 368.641 147.384 369.924C147.826 371.035 148.501 372.037 149.364 372.862C150.227 373.687 151.257 374.316 152.384 374.706ZM157.251 364.503H153.705L151.87 364.476H150.185C150.216 363.524 150.371 362.58 150.646 361.668C150.867 360.92 151.215 360.217 151.675 359.588C152.068 359.047 152.577 358.601 153.164 358.281C153.747 357.978 154.395 357.822 155.052 357.828C155.767 357.818 156.475 357.976 157.118 358.29C157.753 358.601 158.31 359.051 158.749 359.606C159.24 360.228 159.623 360.928 159.884 361.677C160.191 362.571 160.391 363.499 160.478 364.441C159.511 364.503 158.439 364.503 157.251 364.503ZM186.559 375.319C185.306 375.329 184.061 375.122 182.88 374.706C181.767 374.31 180.748 373.69 179.883 372.884C179.015 372.05 178.332 371.041 177.88 369.924C177.371 368.641 177.12 367.27 177.144 365.889C177.13 364.619 177.359 363.358 177.818 362.174C178.235 361.073 178.865 360.064 179.67 359.206C180.455 358.37 181.399 357.699 182.445 357.233C183.523 356.755 184.689 356.512 185.867 356.522C187.023 356.512 188.17 356.726 189.245 357.153C190.252 357.565 191.158 358.19 191.904 358.984C192.689 359.839 193.292 360.846 193.677 361.943C194.141 363.232 194.384 364.59 194.395 365.96L190.397 365.907H183.234C182.268 365.907 181.39 365.907 180.575 365.96C180.63 367.091 180.824 368.21 181.151 369.293C181.424 370.213 181.863 371.074 182.445 371.835C182.977 372.523 183.66 373.079 184.44 373.462C185.272 373.852 186.181 374.046 187.099 374.031C187.754 374.035 188.407 373.954 189.041 373.791C189.62 373.641 190.177 373.417 190.699 373.124C191.18 372.848 191.624 372.51 192.019 372.12C192.4 371.747 192.733 371.329 193.012 370.875L193.225 370.982L191.913 374.137C191.187 374.502 190.423 374.785 189.635 374.982C188.626 375.214 187.594 375.327 186.559 375.319ZM184.201 364.503H187.747C188.934 364.503 190.007 364.503 190.973 364.441C190.886 363.499 190.687 362.571 190.379 361.677C190.119 360.928 189.736 360.228 189.245 359.606C188.806 359.051 188.249 358.601 187.614 358.29C186.971 357.976 186.263 357.818 185.548 357.828C184.891 357.822 184.243 357.978 183.66 358.281C183.073 358.601 182.564 359.047 182.17 359.588C181.711 360.217 181.363 360.92 181.142 361.668C180.867 362.58 180.712 363.524 180.681 364.476H182.365L184.201 364.503ZM216.584 373.764C216.247 373.889 215.89 373.956 215.53 373.959C215.192 373.963 214.855 373.921 214.528 373.835C214.191 373.738 213.885 373.554 213.641 373.302C213.379 372.977 213.191 372.597 213.092 372.191C212.915 371.616 212.834 371.015 212.852 370.413V358.21H215.113C215.469 358.215 215.805 358.227 216.12 358.239H216.12H216.121H216.121H216.122H216.122H216.122C216.458 358.252 216.771 358.264 217.063 358.264L218.951 358.317L219.271 356.539C219.003 356.581 218.734 356.607 218.464 356.619C218.303 356.634 218.129 356.639 217.942 356.645C217.656 356.655 217.337 356.665 216.983 356.708C216.398 356.779 215.751 356.779 215.033 356.779L212.852 356.824C212.861 355.971 212.888 355.233 212.914 354.584C212.941 353.935 212.976 353.384 213.021 352.904C213.049 352.502 213.099 352.101 213.171 351.705C213.215 351.421 213.28 351.142 213.366 350.869V350.798H209.28V350.869C209.333 351.091 209.404 351.385 209.457 351.705C209.51 352.024 209.572 352.433 209.608 352.913C209.614 352.997 209.619 353.083 209.624 353.171L209.631 353.29C209.634 353.359 209.638 353.431 209.641 353.503L209.641 353.504V353.504L209.641 353.505C209.658 353.841 209.676 354.208 209.714 354.602C209.776 355.242 209.776 355.988 209.776 356.824L209.599 356.824C209.458 356.824 209.319 356.825 209.183 356.826H209.182L209.173 356.826C208.797 356.828 208.442 356.83 208.11 356.824C207.861 356.819 207.63 356.807 207.415 356.795H207.415C207.192 356.782 206.987 356.771 206.797 356.771V358.299L209.776 358.193V370.084C209.714 370.808 209.798 371.537 210.023 372.227C210.249 372.918 210.611 373.555 211.088 374.102C211.588 374.548 212.172 374.891 212.805 375.111C213.438 375.33 214.107 375.422 214.776 375.381C215.239 375.39 215.702 375.357 216.159 375.284C216.504 375.23 216.844 375.153 217.178 375.053C217.431 374.982 217.677 374.89 217.914 374.777L218.437 374.519L219.59 371.657L219.412 371.569C219.138 371.885 218.841 372.182 218.526 372.457C218.236 372.742 217.922 373.001 217.586 373.231C217.275 373.448 216.938 373.627 216.584 373.764ZM222.311 363.774C222.311 362.77 222.311 361.899 222.267 361.108C222.249 360.793 222.235 360.509 222.221 360.245L222.221 360.243L222.221 360.241L222.221 360.239L222.22 360.233C222.2 359.839 222.182 359.494 222.161 359.17C222.125 358.628 222.063 358.166 222.001 357.802C221.939 357.437 221.868 357.126 221.797 356.913V356.842H225.884V356.913C225.774 357.237 225.694 357.57 225.645 357.908C225.582 358.299 225.529 358.797 225.494 359.419C225.928 359.046 226.38 358.69 226.859 358.335C227.318 357.987 227.801 357.672 228.304 357.393C228.787 357.126 229.295 356.906 229.82 356.735C230.319 356.575 230.839 356.491 231.362 356.486C231.641 356.485 231.919 356.5 232.196 356.531C232.411 356.558 232.624 356.6 232.834 356.655C233.009 356.705 233.18 356.764 233.348 356.833L233.792 357.019L232.905 360.406L232.604 360.335C232.479 359.844 232.199 359.407 231.806 359.09C231.348 358.751 230.787 358.584 230.219 358.619C229.827 358.621 229.437 358.687 229.066 358.815C228.641 358.954 228.232 359.135 227.843 359.357C227.417 359.595 227.005 359.859 226.611 360.148C226.194 360.45 225.795 360.77 225.405 361.099V362.219V368.067V370.733C225.405 371.411 225.452 371.962 225.493 372.45C225.499 372.525 225.506 372.599 225.512 372.671C225.556 373.213 225.609 373.675 225.671 374.039C225.721 374.339 225.786 374.635 225.866 374.928V374.99H221.797V374.928C221.855 374.726 221.906 374.483 221.962 374.222L221.962 374.222C221.975 374.162 221.988 374.101 222.001 374.039C222.072 373.711 222.116 373.213 222.161 372.671C222.198 372.215 222.223 371.684 222.251 371.083L222.267 370.733C222.302 369.987 222.311 369.098 222.311 368.067V363.774ZM234.705 367.311C234.308 368.06 234.11 368.899 234.128 369.747C234.086 370.512 234.216 371.278 234.507 371.987C234.799 372.696 235.245 373.33 235.813 373.844C237.174 374.884 238.865 375.396 240.573 375.284C241.154 375.29 241.733 375.233 242.302 375.115C242.791 375.016 243.269 374.87 243.729 374.679C244.131 374.509 244.516 374.304 244.882 374.066C245.189 373.863 245.485 373.643 245.768 373.408C245.715 373.764 245.688 374.06 245.688 374.297C245.665 374.514 245.62 374.729 245.555 374.937V374.999H249.465V374.937C249.382 374.645 249.314 374.348 249.261 374.048C249.199 373.684 249.146 373.222 249.101 372.68C249.074 372.345 249.057 371.983 249.037 371.57L249.037 371.566L249.037 371.556L249.036 371.551L249.023 371.269L249.016 371.139C249.01 371.012 249.003 370.879 248.995 370.742C248.951 369.96 248.951 369.08 248.951 368.076V362.299C248.955 361.526 248.823 360.759 248.561 360.032C248.304 359.328 247.881 358.697 247.328 358.193C246.695 357.607 245.942 357.167 245.121 356.904C244.095 356.579 243.023 356.426 241.947 356.451C241.495 356.451 241.07 356.459 240.662 356.495C240.254 356.531 239.846 356.575 239.465 356.646C239.084 356.717 238.694 356.815 238.322 356.922C237.928 357.041 237.543 357.186 237.169 357.357L235.963 359.855L236.141 359.961C236.647 359.57 237.177 359.211 237.728 358.886C238.175 358.623 238.644 358.397 239.128 358.21C239.541 358.05 239.969 357.931 240.405 357.855C240.821 357.784 241.242 357.748 241.664 357.748C242.237 357.74 242.807 357.833 243.348 358.024C243.846 358.198 244.298 358.484 244.669 358.859C245.064 359.256 245.367 359.736 245.555 360.263C245.771 360.917 245.873 361.602 245.857 362.29V363.179C245.148 363.187 244.403 363.223 243.516 363.294C242.651 363.36 241.789 363.475 240.937 363.641C240.078 363.813 239.233 364.051 238.41 364.352C237.628 364.634 236.893 365.033 236.229 365.534C235.605 366.015 235.086 366.62 234.705 367.311ZM245.768 364.583C244.727 364.587 243.72 364.666 242.763 364.77C241.844 364.858 240.946 365.095 240.103 365.472C239.309 365.814 238.641 366.396 238.193 367.137C237.745 367.878 237.539 368.74 237.604 369.604C237.522 370.764 237.898 371.91 238.65 372.795C239.025 373.172 239.476 373.465 239.973 373.655C240.469 373.845 241 373.928 241.531 373.897C242.057 373.903 242.582 373.822 243.082 373.657C243.517 373.51 243.931 373.307 244.314 373.053C244.646 372.829 244.944 372.56 245.201 372.253C245.43 371.985 245.621 371.685 245.768 371.364V369.871V364.583ZM265.777 363.054C265.877 361.834 265.548 360.617 264.846 359.615C264.537 359.252 264.15 358.964 263.714 358.773C263.277 358.582 262.804 358.493 262.328 358.513C261.895 358.523 261.467 358.604 261.06 358.752C260.559 358.924 260.072 359.138 259.607 359.392C259.09 359.653 258.592 359.95 258.117 360.281C257.63 360.631 257.166 361.011 256.725 361.419V368.031V370.698C256.725 371.48 256.779 372.093 256.832 372.635L256.838 372.694L256.838 372.694C256.888 373.211 256.932 373.653 256.991 374.004C257.037 374.304 257.103 374.601 257.186 374.893V374.955H253.1V374.893C253.157 374.69 253.209 374.447 253.265 374.186C253.277 374.126 253.29 374.065 253.303 374.004C253.377 373.55 253.427 373.094 253.454 372.635C253.499 372.093 253.534 371.444 253.561 370.698C253.587 369.951 253.605 369.062 253.605 368.031V363.739C253.605 362.734 253.605 361.863 253.561 361.072C253.544 360.777 253.531 360.507 253.519 360.257L253.519 360.256C253.499 359.837 253.482 359.474 253.454 359.135C253.428 358.676 253.377 358.219 253.303 357.766C253.233 357.402 253.171 357.09 253.1 356.877V356.806H257.186V356.877C257.076 357.245 257.002 357.623 256.965 358.006C256.912 358.459 256.85 359.055 256.796 359.783C257.275 359.384 257.798 358.984 258.357 358.584C258.921 358.182 259.513 357.823 260.13 357.508C260.718 357.202 261.332 356.946 261.965 356.744C262.561 356.553 263.183 356.455 263.809 356.451C264.615 356.426 265.417 356.59 266.149 356.931C266.762 357.225 267.298 357.657 267.718 358.193C268.129 358.72 268.431 359.324 268.605 359.97C268.781 360.634 268.87 361.318 268.87 362.005V368.031V370.698C268.87 371.375 268.917 371.927 268.958 372.414V372.414V372.415C268.965 372.49 268.971 372.563 268.977 372.635C269.021 373.177 269.083 373.639 269.136 374.004C269.187 374.303 269.252 374.6 269.331 374.893V374.955H265.245V374.893C265.328 374.6 265.396 374.303 265.449 374.004C265.53 373.551 265.583 373.094 265.608 372.635C265.652 372.093 265.688 371.444 265.715 370.698C265.741 369.951 265.759 369.062 265.759 368.031L265.777 363.054ZM281.592 360.406H281.84L281.645 357.384C281.167 357.141 280.669 356.942 280.156 356.788C279.357 356.563 278.53 356.458 277.7 356.477C277.003 356.472 276.311 356.586 275.652 356.815C275.055 357.022 274.503 357.346 274.03 357.766C273.575 358.175 273.215 358.678 272.975 359.241C272.715 359.835 272.585 360.477 272.594 361.126C272.576 361.905 272.756 362.675 273.117 363.365C273.469 364.017 273.91 364.615 274.429 365.143C274.965 365.698 275.537 366.217 276.14 366.698C276.743 367.178 277.319 367.667 277.842 368.147C278.342 368.598 278.786 369.108 279.163 369.667C279.505 370.176 279.687 370.777 279.686 371.391C279.699 371.745 279.637 372.097 279.504 372.425C279.371 372.753 279.17 373.049 278.915 373.293C278.344 373.797 277.6 374.058 276.84 374.022C276.337 374.024 275.837 373.93 275.369 373.746C274.927 373.566 274.521 373.307 274.172 372.982C273.809 372.643 273.509 372.243 273.285 371.8C273.04 371.32 272.861 370.808 272.753 370.28H272.47L272.292 373.648L272.405 373.721C272.645 373.877 272.895 374.039 273.179 374.208C273.526 374.418 273.891 374.596 274.269 374.742C274.709 374.903 275.159 375.034 275.617 375.133C276.139 375.243 276.671 375.296 277.204 375.293C278.044 375.313 278.88 375.174 279.668 374.884C280.301 374.639 280.877 374.267 281.361 373.791C281.795 373.355 282.131 372.83 282.345 372.253C282.558 371.685 282.666 371.082 282.665 370.475C282.669 369.744 282.483 369.024 282.124 368.387C281.751 367.74 281.298 367.143 280.776 366.609C280.215 366.032 279.623 365.486 279.003 364.974C278.356 364.458 277.771 363.934 277.23 363.427C276.722 362.958 276.267 362.433 275.874 361.863C275.525 361.38 275.335 360.798 275.333 360.201C275.325 359.831 275.397 359.464 275.546 359.126C275.679 358.829 275.876 358.565 276.122 358.353C276.383 358.137 276.684 357.976 277.009 357.882C277.341 357.773 277.688 357.719 278.037 357.722C278.519 357.714 278.998 357.801 279.447 357.979C279.829 358.136 280.182 358.355 280.493 358.628C280.772 358.887 281.011 359.186 281.202 359.517C281.367 359.796 281.498 360.095 281.592 360.406ZM292.895 349.607C292.572 349.611 292.252 349.665 291.946 349.767C291.593 349.884 291.273 350.085 291.015 350.354C290.7 350.694 290.458 351.097 290.306 351.536C290.099 352.16 290.003 352.816 290.022 353.473V356.842C290.652 356.842 291.237 356.842 291.795 356.788L293.276 356.717C293.713 356.717 294.077 356.691 294.366 356.637C294.656 356.584 294.869 356.557 295.005 356.557L294.685 358.335L293.338 358.282C292.93 358.282 292.443 358.264 291.875 358.228H290.031V368.067V370.733C290.031 371.311 290.07 371.797 290.105 372.23C290.117 372.383 290.128 372.529 290.138 372.671C290.173 373.213 290.235 373.675 290.297 374.039C290.359 374.404 290.43 374.715 290.501 374.928V374.99H286.414V374.928C286.498 374.636 286.563 374.34 286.609 374.039C286.671 373.675 286.725 373.213 286.769 372.671C286.813 372.129 286.849 371.48 286.875 370.733C286.893 370.249 286.887 369.706 286.882 369.103V369.102V369.102V369.102V369.101V369.101V369.101V369.1V369.1V369.1V369.1V369.098C286.879 368.772 286.875 368.428 286.875 368.067V358.193L283.906 358.299V356.771C284.088 356.771 284.289 356.782 284.509 356.794C284.726 356.806 284.962 356.819 285.218 356.824C285.553 356.83 285.9 356.828 286.268 356.826H286.269H286.27H286.27H286.271H286.272H286.273H286.274H286.274H286.275C286.388 356.825 286.502 356.825 286.619 356.824C286.703 356.824 286.789 356.824 286.875 356.824V353.847C286.861 353.023 286.996 352.204 287.274 351.429C287.516 350.766 287.894 350.16 288.382 349.651C288.86 349.167 289.438 348.794 290.076 348.558C290.775 348.307 291.514 348.184 292.256 348.194C292.663 348.192 293.068 348.219 293.471 348.274C293.852 348.336 294.189 348.407 294.49 348.487C294.792 348.567 295.058 348.656 295.288 348.745L295.865 348.985L296.556 352.033L296.343 352.14C296.148 351.865 295.944 351.571 295.723 351.251C295.499 350.949 295.244 350.672 294.96 350.425C294.677 350.174 294.357 349.967 294.012 349.811C293.657 349.668 293.277 349.599 292.895 349.607ZM295.74 362.174C295.244 363.349 294.994 364.614 295.005 365.889C294.977 367.252 295.234 368.605 295.758 369.862C296.239 370.984 296.945 371.995 297.833 372.831C298.718 373.655 299.757 374.296 300.891 374.715C303.442 375.618 306.231 375.577 308.754 374.599C309.894 374.121 310.925 373.417 311.786 372.529C312.607 371.673 313.246 370.661 313.666 369.551C314.097 368.416 314.313 367.211 314.304 365.996C314.321 364.646 314.065 363.307 313.55 362.059C313.08 360.931 312.376 359.916 311.485 359.081C310.597 358.254 309.554 357.61 308.417 357.188C307.215 356.739 305.942 356.513 304.659 356.522C303.357 356.513 302.066 356.754 300.856 357.233C299.713 357.681 298.671 358.352 297.788 359.206C296.914 360.048 296.218 361.057 295.74 362.174ZM307.336 373.533C306.614 373.868 305.827 374.038 305.031 374.031C304.047 374.048 303.076 373.81 302.212 373.337C301.393 372.876 300.696 372.224 300.182 371.435C299.612 370.56 299.198 369.591 298.958 368.573C298.671 367.411 298.531 366.216 298.542 365.018C298.526 363.989 298.67 362.964 298.967 361.979C299.209 361.152 299.613 360.381 300.155 359.712C300.648 359.113 301.269 358.633 301.973 358.308C302.692 357.976 303.477 357.809 304.269 357.819C305.26 357.794 306.24 358.027 307.114 358.495C307.93 358.945 308.626 359.585 309.144 360.361C309.708 361.233 310.119 362.195 310.359 363.205C310.636 364.37 310.773 365.563 310.767 366.76C310.781 367.792 310.637 368.82 310.341 369.809C310.092 370.639 309.689 371.414 309.153 372.093C308.668 372.709 308.046 373.202 307.336 373.533ZM317.699 363.774C317.699 362.77 317.699 361.899 317.655 361.108C317.637 360.793 317.622 360.507 317.609 360.244C317.588 359.845 317.57 359.497 317.548 359.17C317.513 358.628 317.451 358.166 317.389 357.802C317.336 357.502 317.268 357.205 317.185 356.913V356.842H321.272V356.913C321.162 357.237 321.082 357.57 321.032 357.908C320.97 358.299 320.917 358.797 320.882 359.419C321.316 359.046 321.768 358.69 322.247 358.335C322.706 357.987 323.189 357.672 323.692 357.393C324.175 357.126 324.683 356.906 325.208 356.735C325.707 356.575 326.227 356.491 326.75 356.486C327.029 356.485 327.307 356.5 327.584 356.531C327.799 356.558 328.012 356.6 328.222 356.655C328.396 356.705 328.568 356.764 328.736 356.833L329.179 357.019L328.293 360.406L327.991 360.335C327.867 359.844 327.587 359.407 327.194 359.09C326.736 358.751 326.174 358.584 325.607 358.619C325.215 358.621 324.825 358.687 324.454 358.815C324.029 358.954 323.619 359.135 323.231 359.357C322.804 359.595 322.393 359.859 321.999 360.148C321.582 360.45 321.183 360.77 320.793 361.099V362.219V368.067V370.733C320.793 371.411 320.84 371.962 320.881 372.449L320.881 372.45C320.887 372.525 320.893 372.598 320.899 372.671C320.944 373.213 320.997 373.675 321.059 374.039C321.109 374.339 321.174 374.635 321.254 374.928V374.99H317.185V374.928C317.268 374.636 317.336 374.339 317.389 374.039C317.451 373.675 317.504 373.213 317.548 372.671C317.586 372.215 317.61 371.685 317.638 371.084L317.655 370.733C317.69 369.987 317.699 369.098 317.699 368.067V363.774ZM343.31 361.028C343.474 361.69 343.551 362.372 343.541 363.054L343.523 368.067C343.523 368.428 343.525 368.772 343.527 369.098V369.103V369.104C343.531 369.707 343.535 370.25 343.523 370.733C343.505 371.48 343.461 372.129 343.417 372.671C343.372 373.213 343.319 373.675 343.266 374.039C343.216 374.339 343.151 374.635 343.071 374.928V374.99H346.998V374.928C346.936 374.715 346.865 374.404 346.803 374.039C346.722 373.587 346.669 373.13 346.644 372.671C346.616 372.336 346.599 371.973 346.579 371.561L346.579 371.553C346.567 371.3 346.554 371.029 346.537 370.733C346.493 369.951 346.493 369.071 346.493 368.067V361.632C346.502 361.49 346.502 361.348 346.493 361.206C346.912 360.833 347.353 360.486 347.814 360.166C348.27 359.843 348.743 359.546 349.232 359.277C349.672 359.041 350.132 358.845 350.606 358.69C350.994 358.557 351.401 358.485 351.812 358.477C352.287 358.457 352.761 358.546 353.197 358.737C353.633 358.928 354.021 359.216 354.33 359.579C355.031 360.581 355.361 361.798 355.26 363.019V368.031C355.26 368.392 355.262 368.736 355.265 369.062V369.068V369.069V369.07V369.072C355.268 369.673 355.272 370.215 355.26 370.698C355.243 371.444 355.207 372.093 355.154 372.635C355.122 373.094 355.066 373.551 354.985 374.004C354.933 374.303 354.865 374.6 354.782 374.893V374.955H358.886V374.893C358.815 374.679 358.744 374.368 358.682 374.004C358.623 373.654 358.579 373.213 358.529 372.697L358.529 372.696L358.528 372.695L358.528 372.693L358.523 372.635C358.469 372.093 358.416 371.48 358.416 370.698V368.031V362.005C358.412 361.318 358.32 360.634 358.141 359.97C357.968 359.324 357.666 358.72 357.255 358.193C356.834 357.671 356.3 357.252 355.695 356.966C354.962 356.626 354.161 356.462 353.354 356.486C352.725 356.493 352.101 356.595 351.502 356.788C350.863 356.995 350.243 357.256 349.649 357.57C349.034 357.894 348.441 358.259 347.876 358.664C347.308 359.072 346.776 359.481 346.298 359.89C346.158 359.422 345.952 358.976 345.686 358.566C345.42 358.152 345.088 357.786 344.702 357.482C344.291 357.164 343.829 356.918 343.337 356.753C342.765 356.567 342.165 356.476 341.564 356.486C340.981 356.489 340.401 356.579 339.844 356.753C339.253 356.936 338.677 357.168 338.124 357.446C337.544 357.734 336.985 358.061 336.449 358.424C335.911 358.791 335.406 359.164 334.933 359.543C334.986 358.904 335.048 358.37 335.101 357.953C335.139 357.599 335.213 357.251 335.323 356.913V356.842H331.236V356.913C331.307 357.126 331.378 357.437 331.44 357.802C331.502 358.166 331.564 358.628 331.6 359.17C331.621 359.496 331.639 359.845 331.66 360.244V360.244C331.673 360.508 331.688 360.793 331.706 361.108C331.75 361.899 331.75 362.77 331.75 363.774V368.067C331.75 369.098 331.741 369.987 331.706 370.733L331.689 371.084V371.084V371.085V371.085V371.086V371.086V371.087V371.087C331.661 371.687 331.637 372.216 331.6 372.671C331.555 373.213 331.511 373.711 331.44 374.039C331.427 374.101 331.414 374.162 331.401 374.221C331.346 374.482 331.294 374.726 331.236 374.928V374.99H335.323V374.928C335.239 374.636 335.174 374.339 335.128 374.039C335.068 373.688 335.025 373.246 334.974 372.728L334.968 372.671C334.915 372.129 334.862 371.515 334.862 370.733V368.067V362.388V361.17C335.278 360.8 335.716 360.456 336.174 360.139C336.623 359.831 337.091 359.552 337.575 359.304C338.009 359.071 338.463 358.878 338.931 358.726C339.31 358.593 339.708 358.521 340.11 358.513C340.597 358.504 341.08 358.598 341.528 358.788C341.956 358.97 342.331 359.258 342.619 359.623C342.945 360.038 343.18 360.516 343.31 361.028ZM361.475 369.747C361.456 368.899 361.654 368.06 362.051 367.311C362.432 366.62 362.951 366.015 363.576 365.534C364.24 365.033 364.975 364.634 365.757 364.352C366.579 364.051 367.424 363.813 368.283 363.641C369.138 363.475 370.003 363.359 370.872 363.294C371.714 363.223 372.494 363.187 373.203 363.179V362.29C373.219 361.602 373.117 360.917 372.902 360.263C372.713 359.736 372.41 359.256 372.015 358.859C371.646 358.485 371.198 358.2 370.703 358.024C370.159 357.834 369.586 357.741 369.01 357.748C368.588 357.748 368.167 357.784 367.751 357.855C367.315 357.932 366.888 358.051 366.475 358.21C365.99 358.397 365.522 358.623 365.074 358.886C364.523 359.211 363.993 359.57 363.487 359.961L363.319 359.855L364.515 357.357C364.889 357.186 365.274 357.041 365.668 356.922C366.04 356.815 366.43 356.717 366.82 356.646C367.21 356.575 367.6 356.531 368.008 356.495C368.416 356.459 368.842 356.451 369.294 356.451C370.369 356.426 371.441 356.579 372.467 356.904C373.267 357.163 374.004 357.587 374.63 358.148C375.178 358.656 375.597 359.286 375.854 359.988C376.116 360.714 376.248 361.482 376.244 362.254V368.031C376.244 369.036 376.244 369.916 376.288 370.698C376.305 370.997 376.318 371.271 376.33 371.527C376.35 371.939 376.367 372.3 376.395 372.635C376.439 373.177 376.492 373.64 376.554 374.004C376.607 374.303 376.675 374.6 376.758 374.893V374.955H372.849V374.893C372.913 374.684 372.958 374.47 372.982 374.253C372.982 374.016 373.008 373.719 373.061 373.364C372.778 373.599 372.482 373.819 372.175 374.022C371.809 374.26 371.424 374.465 371.022 374.635C370.562 374.826 370.084 374.972 369.595 375.07C369.012 375.192 368.418 375.249 367.822 375.239C366.117 375.349 364.43 374.838 363.07 373.799C362.523 373.284 362.096 372.653 361.82 371.952C361.544 371.251 361.426 370.498 361.475 369.747ZM370.118 364.796C371.084 364.692 372.083 364.614 373.123 364.61V369.898V371.391C372.976 371.712 372.785 372.011 372.556 372.28C372.3 372.587 372.001 372.856 371.67 373.08C371.287 373.334 370.872 373.537 370.437 373.684C369.937 373.849 369.413 373.93 368.886 373.924C368.355 373.954 367.824 373.872 367.328 373.682C366.831 373.492 366.38 373.199 366.005 372.822C365.253 371.936 364.878 370.791 364.959 369.631C364.894 368.767 365.1 367.904 365.548 367.163C365.997 366.422 366.664 365.84 367.459 365.498C368.302 365.122 369.2 364.885 370.118 364.796ZM392.866 381.319C393.089 380.936 393.206 380.5 393.203 380.056C393.206 379.711 393.146 379.367 393.025 379.043C392.886 378.703 392.671 378.398 392.396 378.154C392.068 377.862 391.685 377.638 391.27 377.497C390.731 377.313 390.164 377.226 389.595 377.239H389.143L388.726 377.292L389.417 375.319C389.807 375.319 390.242 375.302 390.694 375.257C391.14 375.221 391.584 375.159 392.024 375.07C392.467 374.99 392.892 374.893 393.309 374.777C393.683 374.669 394.05 374.538 394.408 374.386L395.712 371.222L395.499 371.115C395.23 371.569 394.892 371.976 394.497 372.324C394.091 372.669 393.648 372.967 393.176 373.213C392.695 373.472 392.182 373.669 391.651 373.799C391.124 373.934 390.582 374.002 390.038 374.004C388.981 374.029 387.934 373.794 386.988 373.32C386.124 372.87 385.382 372.218 384.825 371.418C384.228 370.548 383.789 369.579 383.531 368.556C383.24 367.393 383.097 366.199 383.105 365.001C383.091 363.97 383.24 362.944 383.549 361.961C383.817 361.129 384.248 360.358 384.816 359.695C385.353 359.085 386.019 358.605 386.767 358.29C387.56 357.955 388.414 357.788 389.275 357.802C390.38 357.803 391.473 358.033 392.485 358.477C392.961 358.683 393.413 358.943 393.832 359.25C394.223 359.538 394.577 359.872 394.887 360.246L395.091 360.121L393.841 357.108C393.178 356.917 392.503 356.771 391.82 356.673C391.118 356.567 390.41 356.511 389.701 356.504C388.324 356.492 386.957 356.733 385.667 357.215C384.475 357.657 383.379 358.327 382.441 359.188C381.512 360.033 380.773 361.065 380.272 362.217C379.77 363.369 379.519 364.615 379.533 365.872C379.512 367.18 379.741 368.48 380.207 369.702C380.631 370.788 381.274 371.774 382.095 372.6C382.918 373.413 383.894 374.054 384.967 374.484C386.133 374.946 387.367 375.211 388.619 375.266L387.556 378.146C387.689 378.114 387.826 378.096 387.963 378.092C388.105 378.085 388.247 378.085 388.389 378.092C388.995 378.073 389.592 378.241 390.1 378.572C390.334 378.739 390.521 378.963 390.643 379.223C390.766 379.483 390.82 379.77 390.8 380.056C390.808 380.347 390.743 380.636 390.614 380.896C390.484 381.156 390.292 381.381 390.056 381.55C389.497 381.945 388.824 382.145 388.141 382.118C387.814 382.12 387.488 382.096 387.166 382.047C386.902 382.003 386.642 381.944 386.385 381.87C386.17 381.805 385.96 381.725 385.756 381.63L385.242 381.39L384.923 382.207C385.485 382.497 386.081 382.718 386.696 382.865C387.369 383.029 388.06 383.109 388.752 383.105C389.35 383.112 389.946 383.04 390.525 382.892C391.022 382.768 391.495 382.564 391.926 382.287C392.308 382.039 392.629 381.708 392.866 381.319ZM397.742 369.747C397.72 368.9 397.915 368.061 398.309 367.311C398.693 366.62 399.215 366.015 399.843 365.534C400.504 365.034 401.236 364.636 402.015 364.352C402.84 364.049 403.688 363.812 404.55 363.641C405.402 363.474 406.264 363.358 407.13 363.294C408.016 363.223 408.761 363.188 409.461 363.179V362.29C409.476 361.603 409.377 360.918 409.169 360.263C408.98 359.736 408.677 359.256 408.282 358.859C407.911 358.484 407.459 358.198 406.961 358.024C406.42 357.834 405.85 357.741 405.277 357.748C404.855 357.748 404.434 357.783 404.018 357.855C403.579 357.931 403.148 358.05 402.733 358.21C402.251 358.397 401.786 358.623 401.341 358.886C400.807 359.213 400.294 359.576 399.807 359.97L399.63 359.864L400.835 357.366C401.207 357.197 401.589 357.051 401.979 356.931C402.36 356.824 402.741 356.726 403.132 356.655C403.522 356.584 403.921 356.539 404.328 356.504C404.736 356.468 405.162 356.459 405.605 356.459C406.683 356.435 407.758 356.588 408.787 356.913C409.585 357.17 410.32 357.594 410.942 358.157C411.491 358.664 411.914 359.295 412.174 359.997C412.436 360.723 412.568 361.491 412.564 362.263V368.04C412.564 369.045 412.564 369.924 412.608 370.707C412.625 371.006 412.638 371.28 412.65 371.535C412.67 371.947 412.687 372.309 412.715 372.644C412.74 373.103 412.793 373.56 412.874 374.013C412.927 374.312 412.995 374.609 413.078 374.902V374.964H409.169V374.902C409.225 374.691 409.269 374.477 409.302 374.262C409.302 374.025 409.328 373.728 409.381 373.373C409.098 373.608 408.802 373.827 408.495 374.031C408.13 374.269 407.744 374.474 407.342 374.644C406.879 374.835 406.398 374.981 405.906 375.079C405.341 375.198 404.764 375.254 404.186 375.248C402.478 375.36 400.787 374.849 399.426 373.808C398.863 373.299 398.42 372.67 398.128 371.967C397.837 371.265 397.705 370.506 397.742 369.747ZM410.596 351.562C410.388 351.885 410.144 352.183 409.869 352.451C409.642 352.692 409.366 352.881 409.061 353.007C408.755 353.132 408.426 353.191 408.096 353.18C407.721 353.17 407.35 353.101 406.997 352.976C406.571 352.842 406.11 352.691 405.685 352.531L404.417 352.087C404.104 351.972 403.775 351.906 403.442 351.891C403.058 351.879 402.68 351.988 402.36 352.202C401.993 352.498 401.691 352.867 401.474 353.287L400.96 353.002C401.184 352.55 401.432 352.111 401.704 351.687C401.91 351.349 402.154 351.036 402.431 350.754C402.66 350.515 402.936 350.327 403.241 350.201C403.546 350.076 403.874 350.016 404.204 350.025C404.576 350.04 404.943 350.109 405.295 350.229C405.72 350.362 406.181 350.514 406.607 350.682L407.883 351.136C408.196 351.253 408.525 351.322 408.858 351.34C409.241 351.345 409.617 351.23 409.931 351.011C410.299 350.712 410.6 350.34 410.818 349.918L411.332 350.203C411.083 350.771 410.835 351.216 410.596 351.589V351.562ZM406.367 364.77C407.33 364.666 408.326 364.588 409.364 364.583V369.871V371.364C409.223 371.687 409.035 371.987 408.805 372.253C408.547 372.558 408.249 372.828 407.919 373.053C407.533 373.307 407.115 373.51 406.678 373.657C406.18 373.822 405.659 373.903 405.135 373.897C404.603 373.928 404.071 373.845 403.573 373.656C403.075 373.466 402.622 373.172 402.245 372.795C401.497 371.908 401.124 370.763 401.208 369.604C401.139 368.74 401.344 367.875 401.792 367.133C402.241 366.392 402.911 365.81 403.708 365.472C404.551 365.095 405.449 364.858 406.367 364.77ZM417.388 360.642C416.341 362.189 415.79 364.02 415.809 365.889C415.79 367.238 416.049 368.575 416.571 369.818C417.049 370.939 417.752 371.949 418.637 372.786C419.526 373.609 420.568 374.25 421.704 374.67C424.252 375.574 427.038 375.533 429.558 374.555C430.701 374.077 431.735 373.373 432.599 372.484C433.417 371.629 434.053 370.616 434.469 369.507C435.359 367.097 435.318 364.44 434.354 362.059C433.887 360.931 433.186 359.916 432.298 359.081C431.408 358.256 430.366 357.612 429.23 357.188C428.028 356.74 426.754 356.514 425.471 356.522C424.17 356.513 422.879 356.754 421.668 357.233C419.929 357.906 418.435 359.095 417.388 360.642ZM428.149 373.533C427.424 373.869 426.633 374.039 425.835 374.031C424.851 374.048 423.88 373.81 423.016 373.337C422.199 372.876 421.506 372.223 420.995 371.435C420.421 370.56 420.004 369.592 419.762 368.573C419.479 367.41 419.339 366.216 419.346 365.018C419.33 363.989 419.474 362.964 419.771 361.979C420.019 361.152 420.426 360.383 420.968 359.712C421.449 359.12 422.054 358.64 422.741 358.308C423.463 357.975 424.251 357.807 425.046 357.819C426.007 357.789 426.959 358.007 427.811 358.452C428.663 358.897 429.387 359.555 429.913 360.361C430.48 361.231 430.891 362.193 431.127 363.205C431.409 364.369 431.546 365.563 431.535 366.76C431.549 367.792 431.406 368.82 431.11 369.809C430.865 370.64 430.461 371.416 429.922 372.093C429.448 372.702 428.842 373.195 428.149 373.533ZM254.066 194.463L254.952 195.351L255.839 194.463C256.256 194.107 265.121 185.664 265.121 174.972C265.121 164.28 256.22 155.828 255.839 155.472L254.952 154.628L254.066 155.472C253.649 155.828 244.784 164.289 244.784 174.972C244.784 185.655 253.685 194.107 254.066 194.463ZM247.426 175.007C247.426 167.39 252.772 160.778 254.952 158.396C257.133 160.778 262.479 167.399 262.479 175.007C262.479 182.615 257.133 189.228 254.952 191.61C252.745 189.228 247.426 182.624 247.426 175.007Z" fill="white"/>
</svg>
