<svg width="164" height="96" viewBox="0 0 164 96" fill="none" xmlns="http://www.w3.org/2000/svg">
<path fill-rule="evenodd" clip-rule="evenodd" d="M87.0944 26.6364C85.0194 27.9166 83.1618 29.4119 81.3477 30.8724L80.9471 31.1948L80.876 31.2519L80.2087 30.7904C79.5222 30.2944 78.8348 29.7849 78.1434 29.2725C73.5565 25.8729 68.7943 22.3434 62.9613 21.7767C60.7329 21.5459 58.4043 21.7767 56.4227 22.9439C54.8414 23.857 53.6237 25.5761 53.6971 27.4592C53.7205 29.2719 54.778 31.078 56.456 31.8071C57.2658 32.1581 58.1565 32.2782 59.03 32.1543C59.9035 32.0304 60.7259 31.6672 61.4067 31.1048C58.3743 33.3222 54.1575 31.2753 54.2643 27.4658C54.3944 23.8905 58.5277 22.4489 61.6036 22.7199C64.1156 22.8336 66.5409 23.663 68.7794 24.7768C71.6312 26.1952 74.1053 28.1578 76.5917 30.1302L76.592 30.1304L76.5925 30.1308L76.5928 30.131C77.4597 30.8187 78.3281 31.5076 79.2146 32.175L79.4581 32.3623C75.7885 35.1183 71.7252 37.3257 67.2649 38.4629C62.164 39.7372 56.5895 39.3191 51.949 36.7739C48.6397 34.9845 45.8574 32.0346 45.0367 28.3087C44.5176 25.8393 44.7993 23.2682 45.8407 20.9706C46.8816 18.6294 48.9466 17.0508 51.3485 16.2213C52.6425 15.7608 54.0004 15.4523 55.3631 15.1428C57.296 14.7038 59.2387 14.2625 61.0231 13.3817C64.1123 11.9937 66.9513 8.36484 65.4701 4.89984C64.3058 2.36129 61.6002 1.05355 59.1783 0C60.3883 0.570094 61.5383 1.2603 62.6111 2.06027C63.9021 3.06365 65.0564 4.36136 65.2799 5.99686C65.6636 8.9769 63.1949 11.472 60.6261 12.5523C58.9586 13.2929 57.1925 13.6269 55.3951 13.9668C55.2363 13.9969 55.0773 14.0269 54.9181 14.0573C50.638 14.7697 46.5146 16.0641 44.4429 20.285C40.5764 28.3421 45.1335 36.1886 52.8197 39.5331C54.1924 40.1324 55.6204 40.595 57.0832 40.9145C60.4516 41.5988 63.9257 41.5681 67.2815 40.8242C67.7213 40.749 68.3144 40.5857 68.8298 40.4438C69.0026 40.3962 69.1666 40.3511 69.3132 40.3124C69.7895 40.1869 70.4279 39.9567 70.9585 39.7655L70.959 39.7653L70.9594 39.7651L70.9595 39.7651L70.9596 39.7651L70.9597 39.765C71.0398 39.7361 71.1175 39.7081 71.1918 39.6815C71.2281 39.6685 71.2636 39.6558 71.2981 39.6435C74.9709 38.2341 78.4136 36.284 81.5131 33.8574C89.91 39.6703 99.0041 41.8844 109.142 37.8709C112.937 36.3854 116.434 34.2259 119.464 31.4961C110.423 23.5593 97.9732 19.9806 87.0944 26.6364ZM93.7231 37.3023C89.8499 36.5464 86.3337 34.8072 83.0144 32.6868C86.8208 29.6231 90.5071 26.9106 95.4445 26.0879C102.604 24.643 109.883 27.2618 115.624 31.573C114.709 32.2828 113.753 32.9383 112.762 33.5363C107.117 36.9712 100.255 38.6301 93.7231 37.3023ZM100.749 55.2762L103.603 55.6069L109.756 77.006H111.091L116.685 59.2058L122.653 76.9926H124.014L129.732 55.6945L132.598 55.2762V53.9149H130.21H128.508H124.838V55.2762L128.008 55.7301L123.634 71.5989L118.51 55.704L121.979 55.2762V53.9149H117.933H116.842H112.795V55.2762L116.253 55.6826L110.998 71.4637L106.756 55.6747L109.936 55.2762V53.9149H100.749V55.2762ZM0 74.9357L2.89236 74.5272V57.1166L2.38472 56.4098L0.0467048 56.2127V54.3564H2.89236H7.71963L17.7411 68.1472V56.6245L13.8513 56.1892V54.3564H17.7411H19.9329H22.8253V56.1892L19.9329 56.6183V76.8354L19.9229 76.8254V76.8354H17.0539L5.08415 60.1685V74.4809L8.97732 74.9357V76.7686H5.08415H2.89236H0V74.9357ZM39.0318 66.9655C39.0454 67.5832 38.9815 68.2001 38.8417 68.8017H28.9706C29.2201 72.4018 31.1685 74.036 33.544 74.036C34.3218 74.0423 35.092 73.8821 35.8031 73.566C36.5142 73.25 37.1498 72.7853 37.6674 72.2032L38.8417 73.3102C37.4472 75.9859 34.9985 77.2937 31.7059 77.2937C26.7552 77.2937 23.2289 74.0461 23.2289 68.5408C23.2289 62.855 27.6025 59.768 31.9928 59.768C36.4797 59.7613 39.0318 62.8383 39.0318 66.9655ZM28.9626 67.0023H31.8993C33.5307 67.0023 33.9544 66.3903 33.9544 64.8685C33.9544 62.6276 32.8868 61.5239 31.6525 61.5239C30.3351 61.5239 29.1271 62.8608 28.9626 67.0023ZM41.9409 76.7686H40.1594V75.1799L41.9971 74.7904C42.0289 73.1214 42.0443 71.0398 42.0443 69.6044V67.6311C42.0443 65.7548 42.0443 65.0424 41.9409 63.6778L39.8592 63.3701V62.0323L46.5713 59.7646L47.1551 60.1325L47.3595 62.625C48.989 60.7052 50.6428 59.7613 52.6896 59.7613C55.0054 59.7613 56.5185 60.7616 57.1854 62.7885C59.0852 60.4811 60.7365 59.7613 62.6778 59.7613C66.1106 59.7613 67.6352 61.7379 67.6352 65.7949V69.6111C67.6352 71.0941 67.6505 73.1585 67.6823 74.8116L69.3832 75.1665V76.7552H67.7377L67.7386 76.7752H62.2107L62.2116 76.7552H60.6261V75.1665L62.2653 74.7794C62.2956 73.1318 62.3108 71.0845 62.3108 69.6111V66.31C62.3108 63.7413 61.7704 63.0657 60.3759 63.0657C59.3805 63.0657 58.4223 63.5133 57.5037 64.288C57.5525 64.7064 57.577 65.154 57.577 65.6311V69.6044C57.577 71.0933 57.5925 73.1682 57.6235 74.8245L59.225 75.1665V76.7552H57.6765L57.677 76.7686H52.1492L52.1498 76.7552H50.4411V75.1665L52.2045 74.7736C52.2359 73.1259 52.2526 71.0781 52.2526 69.6044V66.32C52.2526 63.9353 51.7789 63.0591 50.2777 63.0591C49.3 63.0591 48.3153 63.5782 47.4654 64.2932V69.6011C47.4654 71.0533 47.4827 73.1671 47.5152 74.8457L49.1167 75.1799V76.7686H41.9409ZM77.1729 67.2632C77.8632 67.061 78.7968 66.8039 79.7584 66.5494V65.4337C79.7584 62.4236 79.1746 61.5172 77.0028 61.5172C76.6882 61.5226 76.3742 61.5406 76.0616 61.5709L75.9086 63.039C75.8218 65.3066 74.7243 66.223 73.4132 66.223C72.1989 66.223 71.3849 65.6377 71.1213 64.514C71.3015 61.6744 74.0404 59.7512 78.9377 59.7512C83.3013 59.7512 85.0293 61.6008 85.0293 66.1695V73.8186C85.0293 74.4875 85.3096 74.822 85.7966 74.822C86.1536 74.822 86.4305 74.6381 86.8275 74.0695L87.7315 74.6748C86.9142 76.5344 85.6999 77.2502 83.6349 77.2502C81.6471 77.2588 80.4332 76.3523 79.9398 74.7793C78.4461 76.3496 77.3728 77.287 75.0479 77.287C72.4157 77.287 70.5876 75.7284 70.5876 72.9223C70.5876 70.4941 71.9253 68.7884 77.1729 67.2632ZM78.1571 68.6211C78.5717 68.4306 79.131 68.2327 79.7584 68.0373V73.5835C78.7845 74.2855 78.2908 74.5277 77.66 74.5277C76.509 74.5277 75.615 73.735 75.615 72.0259C75.615 70.4239 76.6158 69.29 78.1571 68.6211ZM88.7357 71.5343L88.649 75.7184C90.4436 76.7781 92.4946 77.3219 94.5771 77.2903C99.3744 77.2903 102.273 75.2133 102.273 71.6045C102.273 69.0726 100.979 67.2967 97.7497 66.3301L96.0817 65.8551C93.7431 65.1494 93.236 64.4972 93.236 63.5507C93.236 62.3099 94.2502 61.6409 95.7714 61.6409C96.5409 61.6409 97.1106 61.7231 97.6426 61.9051L98.3302 64.8752H101.062L101.296 61.1359C99.6398 60.2381 97.7876 59.7659 95.9049 59.7613C91.3178 59.7613 88.8024 62.1961 88.8024 65.3401C88.8024 67.9054 90.287 69.6546 92.9191 70.4272L94.7539 70.959C96.9958 71.6212 97.6229 72.3202 97.6229 73.3939C97.6229 74.7585 96.5454 75.4006 94.5871 75.4006C93.6453 75.4006 92.8455 75.2324 92.0408 74.9085L91.4713 71.5343H88.7357ZM141.242 66.6882C139.918 66.9975 138.612 67.3792 137.329 67.8318C132.775 69.5007 131.751 71.0359 131.714 72.9724C131.714 75.802 133.789 77.2335 136.271 77.2335C138.265 77.2335 139.412 76.3441 141.31 74.4587C141.59 76.0944 142.721 77.1097 144.318 77.1097C145.475 77.1097 146.393 76.6649 147.21 75.3705L146.543 74.618C146.163 75.0628 145.789 75.3705 145.208 75.3705C144.428 75.3705 143.951 74.822 143.951 73.2902V66.0558C143.951 61.758 142.249 60.1559 138.746 60.1559C135.344 60.1559 132.825 61.758 132.178 64.3501C132.248 65.2029 132.788 65.7147 133.709 65.7147C134.63 65.7147 135.14 65.1829 135.444 64.1795L136.137 61.9214C136.759 61.7676 137.399 61.6899 138.043 61.6911C140.291 61.6911 141.242 62.5072 141.242 65.8518V66.6882ZM141.242 67.954C140.158 68.2401 139.09 68.5856 138.043 68.989C134.983 70.1831 134.643 71.4808 134.643 72.4708C134.643 74.2768 135.834 74.9926 137.399 74.9926C138.559 74.9926 139.235 74.5733 141.242 73.1311V67.954ZM146.119 83.043C146.356 82.0898 147.343 81.6115 148.364 81.6115C149.248 81.6115 149.929 81.946 150.846 82.8725L151.02 83.0473C152.504 81.7918 153.481 79.9459 154.146 78.0796L154.301 77.6413L148.135 62.0835L146.253 61.7948V60.6008H147.547H150.71H154.353V61.8316L151.292 62.1875L155.616 73.96L159.856 62.2235L156.835 61.7948V60.6008H163.507V61.7948L161.68 62.1858L156.221 76.5813C153.906 82.7186 152.001 85.314 149.215 85.314C147.544 85.2873 146.119 84.3742 146.119 83.043ZM16.9472 87.4579H17.0372L16.9738 86.3809C16.7926 86.2904 16.604 86.2154 16.41 86.1569C16.1106 86.0723 15.8003 86.0329 15.4893 86.0398C15.226 86.0377 14.9642 86.0806 14.7153 86.1669C14.4915 86.245 14.2852 86.3666 14.1082 86.5248C13.9351 86.6775 13.7983 86.8672 13.7078 87.0799C13.6099 87.3033 13.561 87.5451 13.5644 87.789C13.5575 88.0822 13.6253 88.3722 13.7612 88.6319C13.8947 88.8763 14.0608 89.1013 14.255 89.3008C14.4546 89.5094 14.6675 89.7049 14.8921 89.8861C15.119 90.0667 15.3358 90.2506 15.536 90.4312C15.7224 90.6018 15.8881 90.7937 16.0297 91.0032C16.1585 91.1949 16.2271 91.4209 16.2266 91.652C16.2315 91.7851 16.2082 91.9178 16.1582 92.0412C16.1082 92.1646 16.0325 92.2759 15.9363 92.3678C15.7216 92.5574 15.4416 92.6558 15.1557 92.642C14.9662 92.6428 14.7783 92.6076 14.6019 92.5383C14.436 92.4698 14.2836 92.3725 14.1515 92.2507C14.015 92.1234 13.902 91.9727 13.8179 91.8059C13.7255 91.6253 13.6581 91.4329 13.6178 91.2339H13.511L13.4443 92.5015L13.487 92.5292C13.5772 92.5877 13.6714 92.6488 13.7779 92.7123C13.9089 92.7904 14.0462 92.8575 14.1882 92.9129C14.3537 92.9737 14.5231 93.0228 14.6953 93.0601C14.8917 93.1015 15.0918 93.1217 15.2925 93.1203C15.6085 93.128 15.9232 93.0758 16.2199 92.9664C16.4586 92.8734 16.6763 92.7336 16.8604 92.5551C17.0213 92.3897 17.1462 92.1927 17.2274 91.9764C17.3075 91.7626 17.3482 91.5359 17.3475 91.3075C17.3575 91.0255 17.2919 90.746 17.1573 90.4981C17.017 90.2547 16.8466 90.0299 16.6502 89.8292C16.4399 89.6113 16.2171 89.4058 15.983 89.2138C15.7395 89.0198 15.5193 88.8225 15.3158 88.6319C15.1186 88.4435 14.943 88.2337 14.7921 88.0064C14.6606 87.8244 14.5894 87.6057 14.5886 87.381C14.5854 87.2418 14.6127 87.1037 14.6686 86.9763C14.7187 86.8645 14.7927 86.7651 14.8855 86.6853C14.9835 86.6041 15.097 86.5437 15.2191 86.508C15.344 86.4672 15.4747 86.4469 15.6061 86.4478C15.7875 86.4449 15.9678 86.4779 16.1365 86.5448C16.2803 86.6038 16.4133 86.6863 16.5301 86.789C16.6354 86.8863 16.7254 86.9991 16.797 87.1234C16.8588 87.2293 16.9091 87.3414 16.9472 87.4579ZM18.1848 90.9731C18.1778 90.654 18.2524 90.3385 18.4017 90.0567C18.5453 89.7957 18.7419 89.5679 18.9788 89.3877C19.2289 89.2074 19.5043 89.0653 19.7961 88.9663C20.1068 88.8525 20.4258 88.7631 20.7503 88.6988C21.071 88.636 21.3952 88.5925 21.721 88.5683C22.0547 88.5416 22.3315 88.5282 22.5984 88.5248V88.1904C22.6044 87.9315 22.5661 87.6736 22.485 87.4278C22.4153 87.2285 22.3013 87.0478 22.1514 86.8994C22.0111 86.7588 21.8413 86.6514 21.6543 86.585C21.4496 86.5133 21.234 86.4782 21.0171 86.4813C20.8595 86.4811 20.7021 86.4945 20.5468 86.5214C20.3815 86.5501 20.2195 86.5949 20.063 86.6552C19.881 86.726 19.7048 86.811 19.5359 86.9094C19.336 87.0258 19.1432 87.1542 18.9588 87.294L18.8921 87.2539L19.3491 86.3241C19.4887 86.2598 19.6325 86.2051 19.7795 86.1602C19.9229 86.1201 20.0664 86.0833 20.2132 86.0565C20.3599 86.0298 20.5101 86.013 20.6635 85.9997C20.817 85.9863 20.9771 85.9829 21.1439 85.9829C21.5487 85.9737 21.9521 86.0313 22.3382 86.1535C22.6398 86.2495 22.9174 86.4092 23.1522 86.6217C23.3581 86.8135 23.5168 87.0505 23.6159 87.3141C23.7134 87.5877 23.762 87.8764 23.7594 88.167V90.3409C23.7594 90.7189 23.7594 91.05 23.7761 91.3443C23.783 91.4669 23.7888 91.5785 23.7942 91.6817C23.8017 91.8263 23.8083 91.9544 23.8161 92.0735C23.8294 92.2775 23.8528 92.4514 23.8761 92.5885C23.8995 92.7256 23.9262 92.8427 23.9529 92.923V92.9464H22.4783V92.923C22.5027 92.8445 22.5195 92.7639 22.5284 92.6822C22.5417 92.593 22.5517 92.4815 22.5584 92.3477C22.465 92.428 22.3549 92.5082 22.2248 92.5952C22.0869 92.6842 21.9418 92.7614 21.7911 92.826C21.4139 92.9791 21.0104 93.0564 20.6035 93.0534C19.9607 93.0955 19.3244 92.903 18.812 92.5116C18.6001 92.3179 18.4339 92.0793 18.3254 91.8132C18.2169 91.5471 18.1689 91.2601 18.1848 90.9731ZM21.4341 89.1001C21.7975 89.0611 22.1734 89.0315 22.5651 89.0299V91.0199V91.5818C22.5109 91.7033 22.4389 91.816 22.3516 91.9163C22.2544 92.0312 22.1422 92.1325 22.018 92.2173C21.8723 92.3122 21.7154 92.3886 21.5509 92.4447C21.3626 92.5068 21.1653 92.5373 20.9671 92.535C20.7675 92.546 20.5678 92.5148 20.381 92.4433C20.1942 92.3719 20.0245 92.2618 19.8829 92.1203C19.6517 91.8086 19.5157 91.4363 19.4914 91.0486C19.4671 90.6609 19.5556 90.2745 19.7461 89.9362C19.9191 89.6865 20.1567 89.4888 20.4333 89.3643C20.7504 89.2223 21.0884 89.1331 21.4341 89.1001ZM26.942 91.9096C26.6837 91.5303 26.5657 91.0724 26.6084 90.6152L26.6184 88.7389C26.6184 88.6014 26.6171 88.4714 26.616 88.3484V88.3483C26.6138 88.1211 26.6119 87.9177 26.6184 87.7355C26.6284 87.4546 26.6384 87.2138 26.6584 87.0064C26.6784 86.799 26.6984 86.6284 26.7185 86.4913C26.7373 86.3787 26.7618 86.267 26.7918 86.1569V86.1301H25.2539V86.1569C25.2854 86.2667 25.31 86.3784 25.3273 86.4913C25.354 86.6251 25.374 86.799 25.394 87.003C25.4141 87.2071 25.4341 87.4345 25.4341 87.7322V88.7355V91.0065C25.4347 91.2653 25.4695 91.5228 25.5375 91.7724C25.6036 92.0153 25.7169 92.2426 25.8711 92.4414C26.0311 92.6422 26.234 92.8045 26.4649 92.9163C26.7413 93.0415 27.0425 93.1021 27.3456 93.0935C27.5801 93.0923 27.813 93.0551 28.0362 92.9832C28.275 92.9095 28.5062 92.8132 28.7268 92.6955C28.958 92.5746 29.1809 92.4383 29.394 92.2875C29.6041 92.137 29.801 91.9831 29.9811 91.8259C29.9729 92.05 29.9517 92.2733 29.9177 92.4949C29.891 92.6688 29.861 92.8092 29.8343 92.923V92.9464H31.3589V92.923C31.3289 92.8128 31.3044 92.7012 31.2855 92.5885C31.2655 92.4514 31.2421 92.2775 31.2255 92.0734L31.2185 91.9905C31.203 91.8069 31.1854 91.5995 31.1854 91.3443V90.3409V88.7255C31.1854 88.588 31.1842 88.458 31.183 88.335V88.3349C31.1809 88.1077 31.1789 87.9044 31.1854 87.7221C31.1954 87.4412 31.2054 87.2004 31.2255 86.993C31.2455 86.7856 31.2655 86.6151 31.2855 86.4779C31.3044 86.3653 31.3289 86.2537 31.3589 86.1435V86.1167H29.831V86.1435C29.8623 86.2536 29.8879 86.3652 29.9077 86.4779C29.9368 86.6484 29.9568 86.8204 29.9678 86.993C29.9782 87.1206 29.9847 87.2574 29.9922 87.4148L29.9922 87.4152C29.9949 87.471 29.9977 87.5293 30.0008 87.5908C30.003 87.633 30.0053 87.6768 30.0078 87.7221C30.0245 88.0198 30.0245 88.3476 30.0245 88.7255V90.8058V91.2172C29.8578 91.367 29.6805 91.5045 29.4941 91.6286C29.3122 91.7569 29.1228 91.8742 28.9269 91.9798C28.75 92.0744 28.566 92.1549 28.3765 92.2206C28.2234 92.2764 28.0623 92.3068 27.8994 92.3109C27.7198 92.3225 27.5399 92.2924 27.3738 92.2227C27.2077 92.1531 27.0599 92.0459 26.942 91.9096ZM28.9936 84.4879C29.3272 84.3642 29.6609 84.2471 29.9945 84.1367L29.3806 83.0932C29.1204 83.3307 28.8202 83.5949 28.58 83.7956C28.3398 83.9962 28.0796 84.2069 27.7927 84.4344C27.5058 84.6618 27.2189 84.8725 26.9286 85.0632L27.0754 85.3107C27.2189 85.2304 27.3857 85.1535 27.5525 85.0799L28.0462 84.8625L28.5333 84.6618L28.9936 84.4879ZM36.0828 85.9963C36.2661 85.9969 36.4491 86.0126 36.6299 86.0431C36.8094 86.0759 36.9866 86.1206 37.1603 86.1769C37.3307 86.2338 37.4959 86.3054 37.654 86.391C37.8035 86.4724 37.9443 86.5688 38.0744 86.6786V85.5849V84.5815C38.0744 84.3263 38.0568 84.1189 38.0413 83.9353L38.0344 83.8524C38.0177 83.6484 37.9943 83.4745 37.9743 83.3373C37.9554 83.2247 37.9309 83.1131 37.9009 83.0029V82.9761H39.4388V83.0029C39.4075 83.113 39.3819 83.2246 39.3621 83.3373C39.3316 83.5076 39.3115 83.6797 39.302 83.8524C39.302 83.9635 39.2931 84.0865 39.2834 84.2209C39.2753 84.3333 39.2666 84.4536 39.262 84.5815C39.252 84.8625 39.2453 85.197 39.2453 85.5849V90.3409V90.3412C39.2453 90.719 39.2453 91.0501 39.262 91.3443C39.2684 91.4569 39.2733 91.5601 39.2779 91.6562C39.2853 91.8112 39.2917 91.9474 39.302 92.0734C39.3115 92.2462 39.3316 92.4182 39.3621 92.5885C39.3819 92.7012 39.4075 92.8129 39.4388 92.923V92.9464H37.9676V92.923C37.9835 92.8717 37.9946 92.8191 38.001 92.7658C38.001 92.7193 38.0098 92.6655 38.0195 92.6054C38.0246 92.5746 38.0298 92.5422 38.0344 92.5082C37.765 92.6691 37.4785 92.7992 37.1803 92.8962C36.795 93.0166 36.3929 93.0742 35.9893 93.0668C35.4992 93.0738 35.012 92.9911 34.5515 92.8226C34.1383 92.6676 33.763 92.4259 33.4506 92.1136C33.1403 91.7949 32.9005 91.4143 32.7467 90.9965C32.5779 90.5223 32.4954 90.0216 32.5032 89.5182C32.4981 89.0393 32.5876 88.5641 32.7667 88.1201C32.9378 87.7009 33.192 87.3208 33.514 87.003C33.8394 86.6812 34.2263 86.4286 34.6516 86.2605C35.1075 86.0818 35.5933 85.9921 36.0828 85.9963ZM38.0844 87.8526C37.944 87.4363 37.6768 87.0748 37.3204 86.8191C36.9919 86.5959 36.603 86.4791 36.2062 86.4846C35.8779 86.4803 35.5522 86.5429 35.2487 86.6686C34.961 86.7857 34.7034 86.9664 34.4948 87.197C34.2778 87.4462 34.1122 87.7361 34.0077 88.0499C33.8834 88.4181 33.8236 88.8051 33.8309 89.1937C33.8283 89.6444 33.881 90.0938 33.9877 90.5316C34.081 90.9152 34.2402 91.2796 34.4581 91.6085C34.654 91.9056 34.9183 92.1511 35.2287 92.3243C35.5531 92.5004 35.9175 92.5892 36.2863 92.5818C36.4843 92.5819 36.6815 92.5572 36.8734 92.5082C37.043 92.459 37.2073 92.3929 37.3638 92.3109C37.5047 92.2398 37.6387 92.1558 37.7641 92.0601C37.8682 91.9792 37.9643 91.8885 38.051 91.7892C38.051 91.5974 38.0577 91.3744 38.071 91.1202V90.3108L38.0844 87.8526ZM42.6681 92.8393C43.1129 92.9957 43.5813 93.0738 44.0526 93.0701C44.4421 93.0731 44.8306 93.0304 45.2102 92.943C45.5067 92.869 45.7943 92.7624 46.0676 92.6253L46.5613 91.438L46.4812 91.3978C46.3761 91.5685 46.2506 91.7258 46.1076 91.8661C45.9585 92.014 45.7902 92.1411 45.6072 92.244C45.4124 92.3549 45.2037 92.4393 44.9867 92.4949C44.748 92.5563 44.5025 92.5867 44.2561 92.5852C43.9106 92.591 43.5683 92.5178 43.2553 92.3711C42.9617 92.2273 42.7049 92.0179 42.5047 91.759C42.2855 91.4726 42.1205 91.1484 42.0176 90.8025C41.8945 90.3949 41.8217 89.9736 41.8008 89.5483C42.1077 89.5282 42.4379 89.5282 42.8016 89.5282H45.4971L47.0017 89.5483C46.9974 89.0327 46.9061 88.5215 46.7314 88.0365C46.5866 87.6238 46.3596 87.2448 46.0642 86.9228C45.7836 86.624 45.4423 86.389 45.0634 86.2338C44.6589 86.0733 44.2274 85.9927 43.7924 85.9963C43.3491 85.9928 42.9101 86.0841 42.5047 86.2639C42.1104 86.4385 41.7552 86.691 41.4605 87.0064C41.1573 87.3294 40.9204 87.7089 40.7632 88.1235C40.5906 88.569 40.5046 89.0435 40.5097 89.5215C40.5009 90.041 40.595 90.5572 40.7866 91.04C40.9528 91.4578 41.207 91.8348 41.5317 92.1453C41.8563 92.4559 42.244 92.6926 42.6681 92.8393ZM44.4996 88.9998H43.1652L42.4746 88.9897H41.8408C41.8523 88.6313 41.9106 88.276 42.0143 87.9328C42.0975 87.6516 42.2284 87.3869 42.4012 87.1502C42.5494 86.9467 42.7408 86.7787 42.9617 86.6585C43.1811 86.5443 43.4251 86.4857 43.6723 86.488C43.9414 86.484 44.2077 86.5435 44.4496 86.6619C44.6885 86.7788 44.8983 86.9479 45.0634 87.1569C45.2481 87.3909 45.3924 87.6544 45.4904 87.9362C45.6061 88.2727 45.6812 88.6219 45.7139 88.9763C45.3503 88.9998 44.9467 88.9998 44.4996 88.9998ZM55.5286 93.0701C55.0573 93.0738 54.5889 92.9957 54.1442 92.8393C53.7256 92.6902 53.3419 92.4569 53.0166 92.1537C52.6898 91.8398 52.4329 91.4603 52.2626 91.04C52.071 90.5572 51.9769 90.041 51.9857 89.5215C51.9806 89.0435 52.0666 88.569 52.2393 88.1235C52.3964 87.7089 52.6333 87.3294 52.9365 87.0064C53.2318 86.6917 53.5868 86.4393 53.9807 86.2639C54.3861 86.0841 54.8251 85.9928 55.2684 85.9963C55.7034 85.9927 56.135 86.0733 56.5394 86.2338C56.9183 86.389 57.2596 86.624 57.5403 86.9228C57.8357 87.2448 58.0627 87.6238 58.2075 88.0365C58.3821 88.5215 58.4735 89.0327 58.4777 89.5483L56.9731 89.5282H54.2776C53.914 89.5282 53.5837 89.5282 53.2768 89.5483C53.2977 89.9736 53.3705 90.3949 53.4936 90.8025C53.5965 91.1484 53.7616 91.4726 53.9807 91.759C54.181 92.0179 54.4377 92.2273 54.7313 92.3711C55.0443 92.5178 55.3866 92.591 55.7321 92.5852C55.9785 92.5867 56.2241 92.5563 56.4627 92.4949C56.6806 92.4387 56.8903 92.3544 57.0866 92.244C57.2679 92.1402 57.435 92.0131 57.5836 91.8661C57.7266 91.7258 57.8521 91.5685 57.9573 91.3978L58.0373 91.438L57.5436 92.6253C57.2703 92.7624 56.9828 92.869 56.6862 92.943C56.3066 93.0304 55.9181 93.0731 55.5286 93.0701ZM54.6412 88.9998H55.9756C56.4227 88.9998 56.8263 88.9998 57.19 88.9763C57.1572 88.6219 57.0821 88.2727 56.9665 87.9362C56.8685 87.6544 56.7241 87.3909 56.5394 87.1569C56.3743 86.9479 56.1646 86.7788 55.9256 86.6619C55.6837 86.5435 55.4174 86.484 55.1483 86.488C54.9011 86.4857 54.6571 86.5443 54.4377 86.6585C54.2169 86.7787 54.0254 86.9467 53.8773 87.1502C53.7044 87.3869 53.5735 87.6516 53.4903 87.9328C53.3867 88.276 53.3283 88.6313 53.3168 88.9897H53.9507L54.6412 88.9998ZM66.8278 92.4848C66.7007 92.5321 66.5664 92.557 66.4308 92.5584C66.3037 92.5597 66.1769 92.544 66.0539 92.5116C65.9271 92.4751 65.812 92.4059 65.7203 92.3109C65.6214 92.1886 65.5508 92.0458 65.5134 91.8928C65.4469 91.6764 65.4164 91.4503 65.4233 91.2239V86.6318H66.274C66.4077 86.6334 66.5337 86.6381 66.6521 86.6426H66.6522H66.6523H66.6524H66.6526H66.6528H66.653H66.6532C66.7798 86.6474 66.8979 86.6518 67.008 86.6518L67.7186 86.6719L67.8387 86.003C67.7381 86.0184 67.6367 86.0285 67.5351 86.0331C67.4744 86.0384 67.4091 86.0405 67.3387 86.0429H67.3385C67.2308 86.0464 67.1111 86.0504 66.978 86.0665C66.7578 86.0933 66.5142 86.0933 66.244 86.0933L65.4233 86.11C65.4267 85.7889 65.4367 85.5113 65.4467 85.2672C65.4567 85.023 65.4701 84.8157 65.4867 84.635C65.4973 84.4836 65.5163 84.3329 65.5434 84.1835C65.5598 84.077 65.5844 83.9719 65.6168 83.8691V83.8424H64.0789V83.8691L64.0806 83.876C64.1004 83.9588 64.1262 84.0664 64.1456 84.1835C64.1657 84.3039 64.189 84.4578 64.2024 84.6384C64.2075 84.7077 64.2111 84.782 64.215 84.8608L64.215 84.861V84.8612C64.2212 84.9876 64.228 85.1257 64.2424 85.2739C64.2657 85.5147 64.2657 85.7956 64.2657 86.11C64.188 86.11 64.1123 86.1104 64.0386 86.1108C63.8973 86.1115 63.7636 86.1122 63.6386 86.11C63.5452 86.1084 63.4582 86.1035 63.3773 86.099L63.377 86.099C63.2933 86.0943 63.2161 86.09 63.1448 86.09V86.6652L64.2657 86.6251V91.1002C64.2423 91.3725 64.2739 91.6468 64.3588 91.9065C64.4436 92.1663 64.5799 92.4062 64.7595 92.6119C64.9477 92.78 65.1672 92.909 65.4054 92.9917C65.6436 93.0743 65.8957 93.1089 66.1473 93.0935C66.3215 93.0966 66.4956 93.0843 66.6677 93.0567C66.7974 93.0366 66.9256 93.0075 67.0513 92.9698C67.1464 92.9432 67.2391 92.9085 67.3282 92.8661L67.5251 92.7691L67.9588 91.6921L67.892 91.6587C67.7886 91.7777 67.6772 91.8895 67.5584 91.9932C67.4493 92.1004 67.331 92.1978 67.2048 92.2841C67.0876 92.3659 66.961 92.4333 66.8278 92.4848ZM68.9829 88.7255C68.9829 88.3476 68.9829 88.0198 68.9662 87.7221C68.9596 87.6035 68.954 87.496 68.9488 87.3967C68.941 87.2469 68.9342 87.1157 68.9262 86.993C68.9129 86.789 68.8895 86.6151 68.8661 86.4779C68.8428 86.3408 68.8161 86.2237 68.7894 86.1435V86.1167H70.3273V86.1435C70.2861 86.2653 70.2559 86.3907 70.2373 86.5181C70.2139 86.6652 70.1939 86.8525 70.1806 87.0866C70.344 86.9462 70.5142 86.8124 70.6943 86.6786C70.867 86.5477 71.0487 86.4292 71.2381 86.3241C71.42 86.2236 71.611 86.1408 71.8085 86.0766C71.9962 86.0162 72.1919 85.9846 72.389 85.9829C72.4938 85.9826 72.5985 85.9882 72.7026 85.9996C72.7836 86.0101 72.8638 86.0258 72.9428 86.0465C73.0085 86.0652 73.0731 86.0875 73.1363 86.1134L73.3031 86.1836L72.9695 87.4579L72.8561 87.4311C72.8092 87.2466 72.7038 87.0823 72.5558 86.9629C72.3837 86.8353 72.1723 86.7725 71.9587 86.7856C71.8111 86.7864 71.6646 86.8113 71.525 86.8592C71.3651 86.9115 71.2108 86.9798 71.0646 87.0632C70.9041 87.1529 70.7493 87.2523 70.6009 87.3609C70.4441 87.4746 70.294 87.595 70.1472 87.7188V88.1402V90.3409V91.3443C70.1472 91.5994 70.1647 91.8067 70.1803 91.9902L70.1803 91.9905L70.1872 92.0734C70.2039 92.2775 70.2239 92.4514 70.2473 92.5885C70.2661 92.7011 70.2906 92.8128 70.3207 92.923V92.9464H68.7894V92.923C68.8111 92.8468 68.8306 92.7552 68.8515 92.6571L68.8661 92.5885C68.8928 92.4648 68.9095 92.2775 68.9262 92.0734C68.9402 91.902 68.9495 91.7022 68.9601 91.4761V91.476L68.9662 91.3443C68.9796 91.0634 68.9829 90.7289 68.9829 90.3409V88.7255ZM73.6467 90.0566C73.4975 90.3385 73.4228 90.654 73.4299 90.9731C73.414 91.2612 73.4628 91.5492 73.5724 91.816C73.6821 92.0828 73.85 92.3216 74.0637 92.5149C74.5761 92.9064 75.2124 93.0988 75.8552 93.0568C76.0737 93.0592 76.2918 93.0379 76.5057 92.9932C76.6896 92.9561 76.8695 92.9012 77.0428 92.8293C77.1939 92.7654 77.339 92.6882 77.4765 92.5985C77.5921 92.5221 77.7034 92.4395 77.8101 92.351C77.7901 92.4848 77.7801 92.5963 77.7801 92.6855C77.7712 92.7672 77.7544 92.8478 77.73 92.9263V92.9497H79.2012V92.9263C79.1699 92.8162 79.1443 92.7046 79.1245 92.5919C79.1012 92.4547 79.0811 92.2808 79.0645 92.0768C79.0542 91.9507 79.0477 91.8145 79.0403 91.6594C79.0357 91.5634 79.0308 91.4602 79.0244 91.3477C79.0078 91.0533 79.0078 90.7222 79.0078 90.3443V88.1703C79.0092 87.8796 78.9595 87.5908 78.861 87.3174C78.7643 87.0525 78.6052 86.815 78.3973 86.6251C78.1589 86.4047 77.8754 86.2392 77.5666 86.1401C77.1805 86.018 76.777 85.9603 76.3723 85.9696C76.2021 85.9696 76.042 85.9729 75.8885 85.9863C75.7351 85.9996 75.5816 86.0164 75.4382 86.0431C75.2947 86.0699 75.1479 86.1067 75.0078 86.1468C74.8598 86.1917 74.7149 86.2464 74.5741 86.3107L74.1204 87.2505L74.1872 87.2907C74.3775 87.1433 74.577 87.0082 74.7843 86.886C74.9528 86.787 75.1291 86.702 75.3114 86.6318C75.4668 86.5715 75.6277 86.5267 75.7918 86.498C75.9483 86.4712 76.1068 86.4578 76.2655 86.4579C76.4812 86.4547 76.6958 86.4898 76.8994 86.5615C77.0868 86.6271 77.2568 86.7346 77.3964 86.8759C77.5451 87.0253 77.659 87.2058 77.73 87.4044C77.8111 87.6502 77.8495 87.9081 77.8435 88.1669V88.5014C77.5766 88.5047 77.2964 88.5181 76.9628 88.5449C76.6369 88.5695 76.3128 88.6131 75.992 88.6753C75.6687 88.7401 75.3508 88.8295 75.0412 88.9429C74.747 89.0491 74.4703 89.1991 74.2205 89.3877C73.9855 89.5689 73.7902 89.7966 73.6467 90.0566ZM77.8101 89.0299C77.4183 89.0315 77.0393 89.0611 76.6792 89.1001C76.3336 89.1335 75.9956 89.2227 75.6784 89.3643C75.3795 89.493 75.1282 89.7121 74.9595 89.9909C74.7909 90.2697 74.7133 90.5944 74.7376 90.9196C74.7071 91.356 74.8484 91.7871 75.1313 92.1203C75.2726 92.2621 75.4423 92.3725 75.6291 92.4439C75.816 92.5154 76.0158 92.5464 76.2155 92.535C76.4137 92.5373 76.611 92.5068 76.7993 92.4447C76.963 92.3893 77.1189 92.3128 77.263 92.2173C77.3878 92.1331 77.5001 92.0318 77.5966 91.9162C77.6829 91.8152 77.7548 91.7027 77.8101 91.5818V91.0199V89.0299ZM85.3396 88.4546C85.3774 87.9953 85.2535 87.5373 84.9893 87.1602C84.8731 87.0236 84.7274 86.9153 84.5633 86.8434C84.3991 86.7715 84.2208 86.7381 84.0419 86.7455C83.879 86.7496 83.7179 86.7801 83.5648 86.8358C83.3759 86.9003 83.1929 86.9809 83.0177 87.0766C82.8233 87.1748 82.636 87.2865 82.4572 87.4111C82.2741 87.5429 82.0992 87.6859 81.9335 87.8392V90.3276V91.3309C81.9335 91.6253 81.9535 91.856 81.9735 92.0601L81.9757 92.0823C81.9948 92.2767 82.0111 92.443 82.0336 92.5751C82.0509 92.6881 82.0754 92.7998 82.1069 92.9096V92.933H80.569V92.9096C80.5957 92.8159 80.6191 92.6989 80.6458 92.5751C80.6733 92.4045 80.6922 92.2326 80.7025 92.0601C80.7192 91.856 80.7325 91.6119 80.7425 91.3309C80.7525 91.05 80.7592 90.7155 80.7592 90.3276V88.7121C80.7592 88.3342 80.7592 88.0064 80.7425 87.7087C80.7363 87.5973 80.7314 87.4957 80.7269 87.4014C80.7194 87.244 80.7129 87.1072 80.7025 86.9796C80.6924 86.8071 80.6735 86.6351 80.6458 86.4645C80.6191 86.3274 80.5957 86.2104 80.569 86.1301V86.1033H82.1069V86.1301C82.0654 86.2686 82.0374 86.4109 82.0236 86.5548C82.0035 86.7254 81.9802 86.9495 81.9602 87.2238C82.1403 87.0733 82.3371 86.9228 82.5473 86.7722C82.7596 86.6212 82.9826 86.486 83.2145 86.3676C83.4361 86.2521 83.6671 86.1559 83.9051 86.0799C84.1295 86.0082 84.3635 85.971 84.599 85.9695C84.9026 85.9603 85.2041 86.0222 85.4797 86.1501C85.7102 86.261 85.9123 86.4235 86.0702 86.6251C86.225 86.8234 86.3384 87.0509 86.4038 87.294C86.47 87.5439 86.5037 87.8014 86.5039 88.0599V90.3276V91.3309C86.5039 91.586 86.5214 91.7934 86.537 91.977L86.5439 92.0601C86.5606 92.2641 86.5839 92.438 86.604 92.5751C86.6228 92.6878 86.6473 92.7994 86.6773 92.9096V92.933H85.1394V92.9096C85.1707 92.7995 85.1964 92.6879 85.2162 92.5751C85.2467 92.4048 85.2667 92.2328 85.2762 92.0601C85.2929 91.856 85.3062 91.6119 85.3162 91.3309C85.3262 91.05 85.3329 90.7155 85.3329 90.3276L85.3396 88.4546ZM91.2911 87.4579H91.3845L91.3111 86.3207C91.1313 86.2295 90.9438 86.1545 90.7507 86.0966C90.4501 86.0119 90.1387 85.9725 89.8266 85.9796C89.5644 85.9774 89.3037 86.0204 89.056 86.1067C88.8311 86.1848 88.6236 86.3063 88.4455 86.4645C88.2744 86.6184 88.1389 86.8079 88.0485 87.0198C87.9505 87.2431 87.9016 87.4849 87.905 87.7288C87.8982 88.022 87.9659 88.312 88.1019 88.5716C88.2342 88.8168 88.4004 89.042 88.5956 89.2406C88.7974 89.4494 89.0125 89.6449 89.2394 89.8259C89.4663 90.0065 89.6831 90.1904 89.88 90.371C90.0683 90.5407 90.2352 90.7327 90.377 90.943C90.5058 91.1347 90.5744 91.3607 90.5739 91.5918C90.5788 91.7249 90.5555 91.8576 90.5055 91.981C90.4555 92.1044 90.3798 92.2157 90.2836 92.3076C90.0689 92.4972 89.7889 92.5956 89.503 92.5818C89.3135 92.5826 89.1256 92.5474 88.9492 92.4781C88.783 92.4104 88.6303 92.3129 88.4988 92.1905C88.3623 92.0632 88.2493 91.9125 88.1652 91.7457C88.0728 91.5651 88.0054 91.3727 87.9651 91.1737H87.8583L87.7916 92.4414L87.8339 92.4688C87.9243 92.5274 88.0185 92.5885 88.1252 92.6521C88.2559 92.7308 88.3932 92.798 88.5355 92.8527C88.701 92.9135 88.8704 92.9626 89.0426 92.9999C89.239 93.0413 89.4392 93.0615 89.6398 93.0601C89.9558 93.0678 90.2705 93.0156 90.5672 92.9062C90.8053 92.814 91.0221 92.674 91.2044 92.4949C91.3677 92.3308 91.494 92.1335 91.5747 91.9162C91.6548 91.7024 91.6955 91.4757 91.6948 91.2473C91.6966 90.972 91.6265 90.701 91.4913 90.4613C91.351 90.2179 91.1806 89.9931 90.9842 89.7924C90.7731 89.5753 90.5504 89.3699 90.317 89.177C90.0735 88.983 89.8533 88.7857 89.6498 88.5951C89.4584 88.4184 89.2872 88.221 89.1394 88.0064C89.0079 87.8244 88.9367 87.6057 88.9359 87.381C88.9327 87.2418 88.96 87.1037 89.0159 86.9763C89.066 86.8645 89.14 86.7651 89.2328 86.6853C89.3308 86.604 89.4443 86.5437 89.5664 86.508C89.6913 86.4672 89.822 86.4469 89.9534 86.4478C90.1348 86.4449 90.3151 86.4779 90.4838 86.5448C90.6276 86.6038 90.7606 86.6863 90.8774 86.789C90.9827 86.8863 91.0727 86.9991 91.1443 87.1234C91.2066 87.2286 91.2559 87.3409 91.2911 87.4579ZM95.5446 83.3942C95.4232 83.3957 95.3028 83.416 95.1876 83.4544C95.0547 83.4984 94.9345 83.5741 94.8373 83.6752C94.7185 83.8032 94.6276 83.9547 94.5704 84.12C94.4925 84.3549 94.4564 84.6017 94.4637 84.8491V86.1167C94.7006 86.1167 94.9207 86.1167 95.1309 86.0967L95.688 86.0699C95.8526 86.0699 95.9894 86.0599 96.0984 86.0398C96.2073 86.0197 96.2874 86.0097 96.3386 86.0097L96.2185 86.6786L95.7114 86.6585C95.5579 86.6585 95.3744 86.6519 95.1609 86.6385H94.467V90.3409V91.3443C94.467 91.5618 94.4816 91.7446 94.4946 91.9075V91.9076C94.4992 91.9652 94.5036 92.0202 94.5071 92.0734C94.5204 92.2775 94.5438 92.4514 94.5671 92.5885C94.5905 92.7256 94.6172 92.8427 94.6438 92.923V92.9464H93.1059V92.923C93.1374 92.8132 93.162 92.7014 93.1793 92.5885C93.2027 92.4514 93.2227 92.2775 93.2394 92.0734C93.256 91.8694 93.2694 91.6253 93.2794 91.3443C93.2859 91.1618 93.2839 90.9566 93.2818 90.7289C93.2806 90.6062 93.2794 90.4768 93.2794 90.3409V86.6251L92.1618 86.6652V86.09C92.2306 86.09 92.3061 86.0942 92.3888 86.0988C92.4706 86.1034 92.5593 86.1084 92.6555 86.11C92.7821 86.1122 92.9129 86.1115 93.0517 86.1108H93.0523H93.0529H93.0536C93.1264 86.1104 93.2015 86.11 93.2794 86.11V84.9896C93.274 84.6797 93.3249 84.3715 93.4295 84.0799C93.5207 83.8303 93.6627 83.6025 93.8465 83.4109C94.0264 83.2288 94.2439 83.0883 94.4837 82.9996C94.7469 82.905 95.0248 82.8585 95.3044 82.8624C95.4572 82.8617 95.61 82.8717 95.7614 82.8925C95.9049 82.9159 96.0316 82.9427 96.1451 82.9728C96.2585 83.0029 96.3586 83.0363 96.4453 83.0698L96.6622 83.1601L96.9224 84.3073L96.8423 84.3474C96.7689 84.2437 96.6922 84.1334 96.6088 84.013C96.5247 83.8991 96.4285 83.7948 96.3219 83.7019C96.2151 83.6075 96.0948 83.5297 95.9649 83.4711C95.8315 83.4172 95.6884 83.391 95.5446 83.3942ZM96.6154 88.1235C96.4288 88.5656 96.3346 89.0414 96.3386 89.5215C96.3281 90.0342 96.4247 90.5435 96.6221 91.0166C96.803 91.4387 97.0688 91.819 97.4028 92.1337C97.7358 92.444 98.127 92.685 98.5537 92.8427C99.5137 93.1826 100.563 93.1672 101.513 92.7992C101.942 92.6193 102.33 92.3543 102.654 92.0199C102.962 91.6981 103.203 91.317 103.361 90.8995C103.523 90.4724 103.605 90.0187 103.601 89.5617C103.608 89.0536 103.511 88.5495 103.318 88.08C103.141 87.6554 102.876 87.2735 102.54 86.9596C102.206 86.6481 101.814 86.406 101.386 86.2472C100.934 86.078 100.454 85.993 99.9715 85.9963C99.4818 85.9929 98.996 86.0838 98.5404 86.2639C98.1105 86.4326 97.7182 86.6849 97.3861 87.0064C97.0571 87.3232 96.795 87.7031 96.6154 88.1235ZM100.979 92.3979C100.707 92.5238 100.411 92.5878 100.112 92.5852C99.7414 92.5919 99.3758 92.502 99.0508 92.3243C98.7424 92.1508 98.4804 91.9053 98.2868 91.6085C98.0722 91.2791 97.9164 90.9146 97.8264 90.5316C97.7182 90.094 97.6655 89.6445 97.6696 89.1937C97.6638 88.8064 97.7178 88.4206 97.8298 88.0499C97.9206 87.7386 98.0726 87.4486 98.2768 87.197C98.4622 86.9715 98.696 86.7908 98.9607 86.6686C99.2315 86.5435 99.5267 86.4807 99.8247 86.4846C100.198 86.475 100.567 86.5626 100.896 86.7388C101.203 86.9083 101.465 87.1492 101.66 87.4412C101.872 87.7692 102.026 88.1312 102.117 88.5115C102.221 88.9496 102.273 89.3988 102.27 89.8493C102.275 90.2376 102.221 90.6245 102.11 90.9965C102.016 91.3087 101.865 91.6003 101.663 91.856C101.48 92.0878 101.246 92.2734 100.979 92.3979ZM104.879 88.7255C104.879 88.3476 104.879 88.0198 104.862 87.7221C104.856 87.6035 104.85 87.496 104.845 87.3967C104.837 87.2469 104.83 87.1157 104.822 86.993C104.809 86.789 104.785 86.6151 104.762 86.4779C104.742 86.3652 104.717 86.2535 104.685 86.1435V86.1167H106.223V86.1435C106.182 86.2653 106.152 86.3907 106.133 86.5181C106.11 86.6652 106.09 86.8525 106.076 87.0866C106.24 86.9462 106.41 86.8124 106.59 86.6786C106.763 86.5477 106.945 86.4292 107.134 86.3241C107.316 86.2236 107.507 86.1408 107.704 86.0766C107.892 86.0162 108.088 85.9846 108.285 85.9829C108.39 85.9826 108.494 85.9882 108.599 85.9996C108.68 86.0101 108.76 86.0258 108.839 86.0465C108.904 86.0652 108.969 86.0875 109.032 86.1134L109.199 86.1836L108.865 87.4579L108.752 87.4311C108.705 87.2466 108.6 87.0823 108.452 86.9629C108.28 86.8353 108.068 86.7725 107.855 86.7856C107.707 86.7864 107.561 86.8113 107.421 86.8592C107.261 86.9115 107.107 86.9798 106.961 87.0632C106.8 87.1529 106.645 87.2523 106.497 87.3609C106.34 87.4746 106.19 87.595 106.043 87.7188V88.1402V90.3409V91.3443C106.043 91.5994 106.061 91.8067 106.076 91.9902L106.076 91.9905L106.083 92.0734C106.1 92.2775 106.12 92.4514 106.143 92.5885C106.162 92.7011 106.187 92.8128 106.217 92.923V92.9464H104.685V92.923C104.717 92.8129 104.742 92.7012 104.762 92.5885C104.785 92.4514 104.805 92.2775 104.822 92.0734C104.836 91.902 104.845 91.7022 104.856 91.4761V91.476L104.862 91.3443C104.876 91.0634 104.879 90.7289 104.879 90.3409V88.7255ZM114.517 87.692C114.578 87.9414 114.607 88.1977 114.603 88.4546L114.597 90.3409C114.597 90.4768 114.598 90.6061 114.598 90.7289V90.7296C114.6 90.9571 114.601 91.162 114.597 91.3443C114.59 91.6253 114.573 91.8694 114.557 92.0734C114.54 92.2775 114.52 92.4514 114.5 92.5885C114.481 92.7011 114.457 92.8128 114.427 92.923V92.9464H115.905V92.923C115.881 92.8427 115.854 92.7256 115.831 92.5885C115.801 92.4182 115.781 92.2462 115.771 92.0734C115.761 91.9474 115.754 91.8111 115.747 91.656L115.747 91.6557C115.742 91.5598 115.737 91.4567 115.731 91.3443C115.714 91.05 115.714 90.7189 115.714 90.3409V87.9194C115.718 87.866 115.718 87.8124 115.714 87.7589C115.872 87.6187 116.038 87.4881 116.211 87.3676C116.383 87.2462 116.561 87.1346 116.745 87.0331C116.911 86.9445 117.084 86.8706 117.262 86.8124C117.408 86.7621 117.562 86.735 117.716 86.7321C117.895 86.7247 118.073 86.7582 118.237 86.83C118.402 86.9019 118.547 87.0102 118.663 87.1468C118.928 87.5239 119.052 87.9819 119.014 88.4412V90.3276C119.014 90.4012 119.014 90.473 119.014 90.5428L119.015 90.7155V90.7162C119.017 90.9437 119.018 91.1486 119.014 91.3309C119.007 91.6119 118.994 91.856 118.974 92.0601C118.962 92.2327 118.94 92.4047 118.91 92.5751C118.89 92.6879 118.865 92.7995 118.834 92.9096V92.933H120.378V92.9096C120.351 92.8293 120.325 92.7123 120.301 92.5751C120.279 92.443 120.263 92.2768 120.244 92.0824L120.241 92.0601C120.221 91.856 120.201 91.6253 120.201 91.3309V90.3276V88.0599C120.2 87.8012 120.165 87.5438 120.098 87.294C120.033 87.0509 119.919 86.8234 119.764 86.6251C119.606 86.4288 119.405 86.271 119.177 86.1635C118.902 86.0355 118.6 85.9737 118.296 85.9829C118.06 85.9856 117.825 86.0239 117.599 86.0966C117.359 86.1743 117.125 86.2728 116.902 86.391C116.671 86.5128 116.448 86.6503 116.235 86.8023C116.021 86.9562 115.821 87.11 115.641 87.2639C115.588 87.0876 115.511 86.9198 115.411 86.7656C115.311 86.6099 115.186 86.472 115.04 86.3575C114.886 86.2381 114.712 86.1454 114.527 86.0833C114.311 86.0132 114.086 85.9793 113.86 85.9829C113.64 85.984 113.422 86.0179 113.212 86.0833C112.99 86.1522 112.773 86.2395 112.565 86.3441C112.347 86.4525 112.136 86.5754 111.935 86.712C111.732 86.8503 111.542 86.9908 111.364 87.1335C111.384 86.8926 111.408 86.692 111.428 86.5348C111.442 86.4018 111.47 86.2706 111.511 86.1435V86.1167H109.973V86.1435C110 86.2237 110.026 86.3408 110.05 86.4779C110.073 86.6151 110.096 86.789 110.11 86.993C110.118 87.1157 110.125 87.2468 110.132 87.3967C110.138 87.496 110.143 87.6035 110.15 87.7221C110.166 88.0198 110.167 88.3475 110.167 88.7255V90.3409C110.167 90.7289 110.163 91.0634 110.15 91.3443L110.144 91.476V91.4761C110.133 91.7022 110.124 91.902 110.11 92.0734C110.093 92.2775 110.076 92.4647 110.05 92.5885L110.035 92.6569L110.035 92.6571C110.014 92.7552 109.995 92.8468 109.973 92.923V92.9464H111.511V92.923C111.479 92.8131 111.455 92.7014 111.438 92.5885C111.415 92.4563 111.399 92.2899 111.38 92.0953V92.0952L111.377 92.0734C111.357 91.8694 111.337 91.6386 111.337 91.3443V90.3409V88.2037V87.7455C111.494 87.6063 111.659 87.4767 111.831 87.3576C112 87.2417 112.176 87.1367 112.358 87.0432C112.522 86.9556 112.692 86.8829 112.869 86.8258C113.011 86.7758 113.161 86.7487 113.312 86.7455C113.496 86.7424 113.677 86.7777 113.846 86.8492C114.007 86.9177 114.148 87.0259 114.257 87.1636C114.379 87.3195 114.468 87.4996 114.517 87.692ZM121.352 90.9731C121.345 90.654 121.42 90.3385 121.569 90.0566C121.713 89.7966 121.908 89.5689 122.143 89.3877C122.393 89.1991 122.669 89.0491 122.964 88.9429C123.273 88.8295 123.591 88.7401 123.914 88.6753C124.236 88.6128 124.562 88.5693 124.889 88.5449C125.205 88.5181 125.499 88.5047 125.766 88.5014V88.1669C125.772 87.9081 125.734 87.6502 125.652 87.4044C125.581 87.2058 125.467 87.0254 125.319 86.8759C125.18 86.7353 125.011 86.6278 124.825 86.5615C124.62 86.4901 124.405 86.455 124.188 86.4579C124.029 86.4578 123.871 86.4712 123.714 86.498C123.55 86.5271 123.389 86.5719 123.234 86.6318C123.052 86.702 122.875 86.787 122.707 86.886C122.499 87.0082 122.3 87.1433 122.11 87.2907L122.046 87.2505L122.497 86.3107C122.637 86.2464 122.782 86.1917 122.93 86.1468C123.07 86.1067 123.217 86.0699 123.364 86.0431C123.511 86.0164 123.658 85.9996 123.811 85.9863C123.964 85.9729 124.125 85.9696 124.295 85.9696C124.699 85.9603 125.103 86.018 125.489 86.1401C125.79 86.2376 126.067 86.3971 126.303 86.6084C126.509 86.7993 126.667 87.0366 126.763 87.3007C126.862 87.5741 126.912 87.8628 126.91 88.1536V90.3276C126.91 90.7055 126.91 91.0366 126.927 91.3309C126.933 91.4433 126.938 91.5464 126.943 91.6423L126.943 91.6426C126.95 91.7978 126.957 91.934 126.967 92.0601C126.984 92.2641 127.004 92.438 127.027 92.5751C127.047 92.6879 127.072 92.7995 127.104 92.9096V92.933H125.632V92.9096C125.657 92.8311 125.674 92.7505 125.682 92.6688C125.682 92.5796 125.692 92.4681 125.713 92.3343C125.606 92.4228 125.494 92.5054 125.379 92.5818C125.241 92.6715 125.096 92.7487 124.945 92.8126C124.772 92.8845 124.592 92.9394 124.408 92.9765C124.189 93.0223 123.965 93.0436 123.741 93.04C123.099 93.0813 122.464 92.8889 121.953 92.4982C121.747 92.3041 121.586 92.0667 121.482 91.803C121.378 91.5393 121.334 91.2559 121.352 90.9731ZM124.605 89.1101C124.968 89.0711 125.344 89.0416 125.736 89.04V91.0299V91.5918C125.681 91.7127 125.609 91.8252 125.522 91.9263C125.426 92.0418 125.314 92.1432 125.189 92.2273C125.045 92.3229 124.889 92.3993 124.725 92.4547C124.537 92.5168 124.339 92.5473 124.141 92.545C123.942 92.5565 123.742 92.5254 123.555 92.454C123.368 92.3825 123.198 92.2722 123.057 92.1303C122.774 91.7971 122.633 91.366 122.663 90.9296C122.639 90.6044 122.717 90.2797 122.885 90.0009C123.054 89.7221 123.305 89.503 123.604 89.3744C123.921 89.2327 124.259 89.1435 124.605 89.1101ZM133.165 95.3277C133.249 95.1838 133.293 95.0197 133.292 94.8528C133.293 94.7227 133.271 94.5934 133.225 94.4715C133.173 94.3433 133.092 94.2289 132.988 94.1371C132.865 94.027 132.721 93.9428 132.565 93.8896C132.362 93.8204 132.148 93.7876 131.934 93.7926H131.764L131.607 93.8126L131.868 93.0701C132.014 93.0701 132.178 93.0635 132.348 93.0467C132.516 93.0332 132.683 93.0097 132.848 92.9765C133.015 92.9464 133.175 92.9096 133.332 92.8661C133.473 92.8254 133.611 92.7762 133.746 92.719L134.236 91.5283L134.156 91.4882C134.055 91.6587 133.928 91.8122 133.779 91.943C133.626 92.0727 133.46 92.1849 133.282 92.2775C133.101 92.3751 132.908 92.4493 132.708 92.4982C132.51 92.5487 132.306 92.5745 132.101 92.5751C131.703 92.5844 131.309 92.496 130.953 92.3176C130.628 92.1486 130.349 91.903 130.139 91.6019C129.915 91.2747 129.75 90.91 129.652 90.5249C129.543 90.0875 129.489 89.638 129.492 89.1871C129.487 88.7993 129.543 88.4132 129.659 88.0432C129.76 87.73 129.922 87.4401 130.136 87.1903C130.338 86.961 130.589 86.7804 130.87 86.6619C131.169 86.5356 131.49 86.4729 131.814 86.4779C132.23 86.4786 132.641 86.5651 133.022 86.7321C133.201 86.8097 133.371 86.9073 133.529 87.0231C133.676 87.1313 133.809 87.2571 133.926 87.3977L134.003 87.3509L133.532 86.2171C133.283 86.145 133.029 86.0903 132.772 86.0532C132.508 86.0135 132.241 85.9923 131.974 85.9896C131.456 85.9852 130.942 86.0759 130.456 86.2572C130.008 86.4236 129.595 86.6758 129.242 86.9997C128.893 87.3175 128.614 87.706 128.426 88.1396C128.237 88.5731 128.142 89.0419 128.148 89.5148C128.14 90.0071 128.226 90.4964 128.401 90.9564C128.561 91.3648 128.803 91.736 129.112 92.0467C129.422 92.3528 129.789 92.5938 130.193 92.7557C130.631 92.9298 131.096 93.0293 131.567 93.0501L131.167 94.1337C131.217 94.1217 131.269 94.115 131.32 94.1137C131.374 94.1108 131.427 94.1108 131.481 94.1137C131.709 94.1066 131.933 94.1696 132.124 94.2943C132.212 94.357 132.283 94.4413 132.329 94.5391C132.375 94.6368 132.395 94.7449 132.388 94.8528C132.391 94.9623 132.367 95.0708 132.318 95.1688C132.269 95.2668 132.197 95.3512 132.108 95.4147C131.898 95.5635 131.644 95.6387 131.387 95.6288C131.264 95.6293 131.142 95.6203 131.02 95.602C130.921 95.5854 130.823 95.5631 130.727 95.5351C130.646 95.5108 130.566 95.4806 130.49 95.4448L130.296 95.3545L130.176 95.6622C130.388 95.7713 130.612 95.8544 130.843 95.9097C131.097 95.9713 131.357 96.0017 131.617 96C131.842 96.0026 132.067 95.9756 132.285 95.9197C132.471 95.8733 132.65 95.7965 132.812 95.6923C132.955 95.5988 133.076 95.4743 133.165 95.3277ZM135 90.9731C134.992 90.6543 135.066 90.3388 135.214 90.0567C135.358 89.7964 135.555 89.5688 135.791 89.3877C136.04 89.1998 136.315 89.0499 136.608 88.9429C136.919 88.8291 137.238 88.7396 137.562 88.6753C137.883 88.6126 138.207 88.5691 138.533 88.5449C138.867 88.5181 139.147 88.5048 139.41 88.5014V88.167C139.416 87.9084 139.379 87.6507 139.3 87.4044C139.229 87.2058 139.115 87.0254 138.967 86.8759C138.827 86.7346 138.657 86.6271 138.47 86.5615C138.266 86.4901 138.051 86.455 137.836 86.4579C137.677 86.4576 137.518 86.4711 137.362 86.498C137.197 86.5267 137.035 86.5715 136.878 86.6318C136.697 86.702 136.522 86.787 136.355 86.886C136.153 87.0092 135.961 87.1455 135.777 87.294L135.711 87.2539L136.164 86.314C136.304 86.2504 136.448 86.1956 136.595 86.1502C136.738 86.11 136.882 86.0732 137.028 86.0465C137.175 86.0197 137.325 86.003 137.479 85.9896C137.632 85.9762 137.792 85.9729 137.959 85.9729C138.365 85.9637 138.77 86.0214 139.157 86.1435C139.457 86.2402 139.733 86.3998 139.967 86.6117C140.174 86.8026 140.333 87.0398 140.431 87.304C140.53 87.5775 140.579 87.8662 140.578 88.1569V90.3309C140.578 90.7088 140.578 91.04 140.595 91.3343C140.601 91.4467 140.606 91.5499 140.611 91.6459C140.618 91.8011 140.624 91.9374 140.635 92.0634C140.644 92.2362 140.664 92.4082 140.695 92.5785C140.715 92.6912 140.74 92.8028 140.771 92.9129V92.9363H139.3V92.9129C139.321 92.8337 139.338 92.7533 139.35 92.6721C139.35 92.5829 139.36 92.4714 139.38 92.3377C139.274 92.4261 139.162 92.5087 139.047 92.5852C138.909 92.6748 138.764 92.752 138.613 92.8159C138.439 92.8878 138.258 92.9427 138.073 92.9798C137.86 93.0243 137.643 93.0456 137.425 93.0434C136.783 93.0854 136.146 92.893 135.634 92.5016C135.422 92.3097 135.255 92.0731 135.146 91.8088C135.036 91.5444 134.986 91.259 135 90.9731ZM139.837 84.13C139.759 84.2515 139.667 84.3637 139.564 84.4645C139.478 84.555 139.375 84.6262 139.26 84.6735C139.145 84.7208 139.021 84.743 138.897 84.7387C138.756 84.7352 138.616 84.7092 138.483 84.6618C138.323 84.6116 138.149 84.5548 137.989 84.4946L137.512 84.3274C137.394 84.284 137.271 84.2592 137.145 84.2538C137.001 84.2493 136.858 84.2903 136.738 84.3708C136.6 84.4821 136.486 84.6211 136.405 84.7789L136.211 84.6719C136.295 84.5019 136.389 84.3366 136.491 84.1768C136.569 84.0497 136.661 83.9318 136.765 83.8257C136.851 83.7358 136.955 83.6651 137.07 83.6178C137.184 83.5706 137.308 83.548 137.432 83.5514C137.572 83.5573 137.71 83.5832 137.842 83.6283C138.003 83.6785 138.176 83.7354 138.336 83.7989L138.817 83.9695C138.934 84.0137 139.058 84.0396 139.184 84.0464C139.328 84.0484 139.469 84.0051 139.587 83.9227C139.725 83.8101 139.839 83.67 139.921 83.5113L140.114 83.6183C140.021 83.8324 139.927 83.9996 139.837 84.1401V84.13ZM138.246 89.1001C138.608 89.0612 138.983 89.0317 139.374 89.0299V91.0199V91.5818C139.321 91.7033 139.25 91.8161 139.163 91.9163C139.066 92.0312 138.954 92.1324 138.83 92.2173C138.685 92.3129 138.528 92.3893 138.363 92.4447C138.176 92.5068 137.98 92.5373 137.782 92.535C137.582 92.5465 137.382 92.5155 137.194 92.444C137.007 92.3726 136.837 92.2622 136.695 92.1203C136.413 91.7866 136.273 91.3556 136.304 90.9196C136.279 90.5941 136.356 90.2688 136.524 89.9897C136.693 89.7106 136.945 89.4918 137.245 89.3643C137.562 89.2228 137.9 89.1335 138.246 89.1001ZM142.393 87.547C141.999 88.1291 141.792 88.818 141.799 89.5215C141.792 90.0288 141.89 90.5322 142.086 90.9998C142.266 91.4217 142.53 91.802 142.863 92.1169C143.198 92.4267 143.59 92.6676 144.017 92.826C144.976 93.1659 146.025 93.1505 146.973 92.7825C147.403 92.6027 147.792 92.3376 148.117 92.0032C148.425 91.6813 148.665 91.3001 148.821 90.8828C149.156 89.9758 149.141 88.9761 148.778 88.08C148.602 87.6556 148.338 87.2737 148.004 86.9595C147.669 86.6488 147.277 86.4068 146.85 86.2472C146.397 86.0783 145.918 85.9933 145.435 85.9963C144.946 85.9929 144.46 86.0838 144.004 86.2639C143.349 86.5172 142.788 86.9649 142.393 87.547ZM146.443 92.3979C146.17 92.5242 145.873 92.5882 145.572 92.5852C145.202 92.5919 144.836 92.502 144.511 92.3243C144.204 92.1507 143.943 91.9051 143.751 91.6085C143.535 91.2793 143.378 90.9148 143.287 90.5316C143.18 90.0938 143.127 89.6444 143.13 89.1937C143.124 88.8064 143.178 88.4206 143.29 88.0499C143.384 87.7389 143.536 87.4492 143.741 87.197C143.922 86.9739 144.149 86.7935 144.408 86.6686C144.68 86.543 144.976 86.4802 145.275 86.4846C145.637 86.4732 145.995 86.5552 146.316 86.7227C146.636 86.8902 146.909 87.1376 147.107 87.4412C147.32 87.7684 147.475 88.1307 147.564 88.5115C147.67 88.9493 147.721 89.3987 147.717 89.8493C147.723 90.2376 147.669 90.6245 147.557 90.9965C147.465 91.3093 147.313 91.6012 147.11 91.856C146.932 92.0854 146.704 92.2707 146.443 92.3979ZM80.9327 25.0109L81.2663 25.3454L81.5999 25.0109C81.7567 24.8771 85.0927 21.6997 85.0927 17.6762C85.0927 13.6526 81.7433 10.4719 81.5999 10.3382L81.2663 10.0204L80.9327 10.3382C80.7759 10.4719 77.4398 13.656 77.4398 17.6762C77.4398 21.6964 80.7892 24.8771 80.9327 25.0109ZM78.434 17.6896C78.434 14.8233 80.4456 12.3349 81.2663 11.4385C82.0869 12.3349 84.0986 14.8266 84.0986 17.6896C84.0986 20.5526 82.0869 23.0409 81.2663 23.9373C80.4356 23.0409 78.434 20.5559 78.434 17.6896Z" fill="white"/>
</svg>
